<?xml version="1.0" encoding="utf-8"?>
<!-- Generator: Adobe Illustrator 25.0.0, SVG Export Plug-In . SVG Version: 6.00 Build 0)  -->
<svg version="1.1" id="Livello_1" xmlns="http://www.w3.org/2000/svg" xmlns:xlink="http://www.w3.org/1999/xlink" x="0px" y="0px"
	 viewBox="0 0 717.44 213.01" style="enable-background:new 0 0 717.44 213.01;" xml:space="preserve">
<style type="text/css">
	.st0{fill:#FFFFFF;}
</style>
<g>
	<path class="st0" d="M47.72,69.72c8.2,4.75,9.35,12.3,9.18,20.46c-0.24,11.32-0.03,22.67-0.67,33.96
		c-0.53,9.3-5.54,15.61-14.65,16.27c-13.7,1-27.53,0.26-41.58,0.26C0,94,0,47.26,0,0.95c13.94,0,27.57-0.61,41.12,0.22
		c8.96,0.54,13.67,5.56,14.22,14.6c0.81,13.44,0.61,26.95,0.46,40.42C55.73,61.76,52.99,66.36,47.72,69.72z M18.85,78.93
		c0,15.25,0,29.78,0,44.65c4.73,0,9.03,0.08,13.33-0.02c3.53-0.08,5.77-2.03,5.81-5.55c0.12-11.15,0.16-22.31-0.1-33.46
		c-0.08-3.55-2.3-5.74-6.25-5.64C27.48,79.01,23.34,78.93,18.85,78.93z M18.73,61.06c4.71,0,9.23,0.46,13.58-0.22
		c1.83-0.29,4.64-2.93,4.7-4.59c0.44-11.12,0.45-22.28,0.05-33.4c-0.06-1.65-2.87-4.28-4.7-4.56c-4.35-0.68-8.87-0.22-13.62-0.22
		C18.73,32.4,18.73,46.31,18.73,61.06z"/>
	<path class="st0" d="M649.43,0.44c13,0,25.53-0.85,37.9,0.23C700.19,1.79,706,8.71,706.1,21.56c0.26,32.8,0.27,65.61,0,98.41
		c-0.12,14.03-7.01,20.76-21.05,21.17c-11.77,0.35-23.55,0.07-35.62,0.07C649.43,94.08,649.43,47.38,649.43,0.44z M668.4,18
		c0,35.54,0,70.42,0,105.55c3.69,0,7.02,0.03,10.34-0.01c7.18-0.07,8.54-1.37,8.55-8.43c0.03-18.15,0.01-36.3,0.01-54.44
		c0-11.99-0.04-23.98,0.01-35.96c0.02-4.57-2.15-6.75-6.69-6.71C676.65,18.02,672.68,18,668.4,18z"/>
	<path class="st0" d="M119.42,106.05c-8.9,0-17.21,0.11-25.52-0.06c-3.13-0.06-3.36,1.66-3.67,4.03
		c-1.34,10.2-2.83,20.38-4.32,30.91c-6.22,0-12.26,0-19.05,0C74.64,93.84,82.37,47.06,90.1,0.27c8.2,0,15.82,0,23.91,0
		c5.81,35.14,11.59,70.16,17.42,105.4c2.05,0.21,3.98,0.41,6.3,0.64c1.9,11.44,3.79,22.86,5.76,34.73c-6.47,0-12.51,0-19,0
		C122.82,129.54,121.17,118.09,119.42,106.05z M93.35,88.25c5.87,0,11.35,0,17.44,0c-2.8-19.98-5.53-39.41-8.25-58.84
		c-0.32,0.03-0.64,0.06-0.96,0.09C98.85,49.01,96.12,68.51,93.35,88.25z"/>
	<path class="st0" d="M539.03,61.21c9.12,0,17.9,0,26.97,0c0,5.83,0,11.26,0,17.44c-10.97,0-22,0-33.31,0c0,15.15,0,29.56,0,44.59
		c11.01,0,21.91,0,33.21,0c0,6.16,0,11.71,0,17.68c-17.14,0-34.36,0-51.95,0c0-20.61,0-41.15,0-62.05c5.74,0.83,6.12-2.38,6.08-6.81
		c-0.19-21.99-0.09-43.99-0.09-65.98c0-1.8,0-3.6,0-5.69c15.57,0,30.64,0,46.06,0c0,5.66,0,11.25,0,17.39c-8.73,0-17.64,0-26.97,0
		C539.03,32.34,539.03,46.38,539.03,61.21z"/>
	<path class="st0" d="M336.4,140.98c0-47.07,0-93.66,0-140.58c15.26,0,30.33,0,45.8,0c0,5.7,0,11.39,0,17.54
		c-8.88,0-17.64,0-26.76,0c0,14.49,0,28.53,0,43.08c8.8,0,17.55,0,26.69,0c0,6.04,0,11.58,0,17.67c-8.87,0-17.63,0-26.71,0
		c0,15.11,0,29.67,0,44.77c8.86,0,17.62,0,26.74,0c0,6.07,0,11.62,0,17.51C366.98,140.98,351.92,140.98,336.4,140.98z"/>
	<path class="st0" d="M406.4,0.29c15.48,0,30.43,0,45.69,0c0,5.81,0,11.4,0,17.64c-8.84,0-17.73,0-26.89,0c0,14.58,0,28.51,0,43.09
		c8.89,0,17.78,0,26.93,0c0,6.08,0,11.52,0,17.67c-8.88,0-17.76,0-27.17,0c0,21.11,0,41.52,0,62.28c-6.45,0-12.34,0-18.56,0
		C406.4,94.08,406.4,47.36,406.4,0.29z"/>
	<path class="st0" d="M175.45,141.05c-6.75,0-12.66,0-19.07,0c0-40.96,0-81.67,0-122.94c-6.21,0-11.94,0-17.95,0
		c0-6.13,0-11.72,0-17.68c18.07,0,36.12,0,54.54,0c0,5.58,0,11.16,0,17.31c-5.54,0-11.27,0-17.52,0
		C175.45,59,175.45,99.7,175.45,141.05z"/>
	<path class="st0" d="M235.85,141.03c-6.48,0-11.9,0-17.73,0c0-26.51,0-52.88,0-79.52c1.83-0.22,3.59-0.43,5.64-0.68
		c0-14.14,0-28.2,0-42.71c-5.98,0-11.74,0-17.82,0c0-6.17,0-11.9,0-17.84c18.39,0,36.48,0,54.89,0c0,5.78,0,11.36,0,17.51
		c-5.62,0-11.35,0-17.68,0c0,14.58,0,28.63,0,42.97c-2.45,0.33-4.35,0.59-7.3,0.99C235.85,88.02,235.85,114.38,235.85,141.03z"/>
	<path class="st0" d="M293.93,61.03c-1.8,0.16-3.42,0.31-5.36,0.49c0,20.6,0,41.01,0,61.99c10.93,0,21.86,0,33.18,0
		c0,6.09,0,11.63,0,17.49c-17.37,0-34.61,0-52.16,0c0-26.5,0-52.89,0-79.52c1.8-0.19,3.42-0.37,5.63-0.6c0-19.98,0-40.03,0-60.43
		c6.5,0,12.4,0,18.71,0C293.93,20.4,293.93,40.45,293.93,61.03z"/>
	<path class="st0" d="M637.1,123.68c0,6.18,0,11.6,0,17.33c-17.45,0-34.66,0-52.13,0c0-26.69,0-53.08,0-79.53
		c2.09-0.24,3.87-0.45,6.02-0.7c0-20.08,0-40.02,0-60.33c6.3,0,12.2,0,18.49,0c0,20.02,0,40.08,0,60.39
		c-1.79,0.27-3.55,0.53-5.53,0.82c-0.16,0.81-0.44,1.59-0.44,2.37c-0.03,18.48,0.03,36.96-0.1,55.44c-0.02,3.29,1.1,4.32,4.33,4.27
		C617.37,123.57,627.01,123.68,637.1,123.68z"/>
	<path class="st0" d="M473.55,0.26c6.35,0,12.13,0,18.29,0c0,46.87,0,93.54,0,140.63c-5.98,0-11.99,0-18.29,0
		C473.55,94.06,473.55,47.38,473.55,0.26z"/>
	<path class="st0" d="M298.64,187.58c0-4.15-0.15-8.31,0.03-12.46c0.3-6.78,3.63-10.02,10.29-10.17c3.98-0.09,7.98-0.09,11.96,0
		c6.11,0.15,9.88,3.32,10.08,9.36c0.32,9.46,0.3,18.94-0.03,28.4c-0.2,5.73-3.99,9.04-9.73,9.27c-4.15,0.16-8.31,0.13-12.46,0.01
		c-6.11-0.18-9.59-3.28-10.03-9.46c-0.36-4.96-0.07-9.96-0.07-14.94C298.68,187.58,298.66,187.58,298.64,187.58z M306.23,188.08
		c0,4.16,0.1,8.33-0.02,12.49c-0.15,5.08,3.77,4.34,6.28,3.75c3.68-0.88,10.04,3.81,10.73-3.66c0.74-8.09,0.14-16.3,0.2-24.46
		c0.04-5.41-4.16-4.26-6.78-3.77c-3.56,0.66-9.37-3.54-10.32,3.68C305.8,180.03,306.22,184.08,306.23,188.08z"/>
	<path class="st0" d="M224.94,180.04c-2.4,0-4.51,0-6.58,0c-2.02-10.53,1.62-15.07,11.9-15.12c2.83-0.01,5.67,0.1,8.49-0.03
		c4.84-0.22,9.41,0.66,11.05,5.72c1.71,5.28,2.19,10.86-2.26,15.45c-5.67,5.85-11.34,11.68-17.58,18.11c6.92,0,13.53,0,20.48,0
		c0,2.99,0,5.2,0,7.62c-7.53,0-14.78,0-22.28,0c-0.31-1.54-0.59-2.96-0.96-4.83c-2.87,1.96-5.52,3.77-8.64,5.91
		c-1.48-5.14-1.07-8.5,2.42-11.65c6.31-5.68,12.25-11.75,18.33-17.68c1.07-1.04,2.54-2.01,2.96-3.3c0.64-1.95,1.1-4.33,0.5-6.15
		c-0.34-1.01-2.95-1.48-4.61-1.78c-1.61-0.29-3.32-0.06-4.98-0.06C225.6,172.25,225.6,172.25,224.94,180.04z"/>
	<path class="st0" d="M470.46,204.54c7.91,0,14.53,0,21.46,0c0,2.52,0,4.74,0,7.22c-7.43,0-14.7,0-22.41,0
		c-0.22-1.4-0.45-2.93-0.78-5c-2.95,2.09-5.59,3.97-8.82,6.25c-1.28-5.36-1.01-8.84,2.69-12.11c6.47-5.72,12.58-11.86,18.63-18.04
		c1.5-1.53,2.63-3.75,3.16-5.85c0.81-3.26-0.77-5.03-4.32-4.79c-1.82,0.12-3.66,0.02-5.49,0.01c-7.54,0-7.54,0-8.37,7.69
		c-2.05,0-4.14,0-6.25,0c-2.53-9.82,1.36-14.96,11.42-15.01c2.83-0.01,5.66,0.08,8.48-0.02c4.94-0.18,9.67,0.49,11.43,5.86
		c1.82,5.55,1.98,11.14-2.74,15.73c-4.89,4.75-9.75,9.53-14.61,14.31C473.03,201.7,472.19,202.69,470.46,204.54z"/>
	<path class="st0" d="M411,165.46c0,10.56,0,21.16,0,32.19c-1.5,0.21-3,0.42-3.84,0.54c1.74,4.31,3.42,8.46,5.46,13.49
		c-3.96,0-6.18,0-8.56,0c-0.26-2.12-0.49-4.06-0.79-6.55c-8.03,0-15.95,0-25.65,0c1.77-4.58,2.51-8.47,4.57-11.45
		c5.76-8.35,12.07-16.33,18.16-24.46C404,164.36,403.99,164.35,411,165.46z M388.59,197.57c5.7,0,10.13,0,14.72,0
		c0-6.35,0-12.36,0-19.64C398.06,184.93,393.57,190.92,388.59,197.57z"/>
	<path class="st0" d="M717.44,5.63c-2.27,0-3.92,0-5.61,0c-0.27-1.55-0.51-2.97-0.76-4.39c-0.34-0.07-0.68-0.14-1.01-0.2
		c-0.44,1.47-0.88,2.95-1.45,4.88c-0.57-2.04-1.03-3.71-1.64-5.91c3.27,0.39,6.44,0.77,10.22,1.23
		C717.23,2.02,717.33,3.71,717.44,5.63z"/>
</g>
</svg>
