<?xml version="1.0" encoding="utf-8"?>
<!-- Generator: Adobe Illustrator 25.0.0, SVG Export Plug-In . SVG Version: 6.00 Build 0)  -->
<svg version="1.1" id="Livello_1" xmlns="http://www.w3.org/2000/svg" xmlns:xlink="http://www.w3.org/1999/xlink" x="0px" y="0px"
	 viewBox="0 0 838.66 272.84" style="enable-background:new 0 0 838.66 272.84;" xml:space="preserve">
<style type="text/css">
	.st0{fill:#FFFFFF;}
</style>
<g>
	<path class="st0" d="M123.44,245.32C55.24,245.57-0.07,190.61,0,122.37C0.07,55.48,54.55,0.36,122.19,0
		c67.35-0.35,123.51,54.64,123.66,120.83C246,189.87,191.73,245.06,123.44,245.32z M57.29,125.87
		c-6.55,10.5-12.46,19.92-18.29,29.38c-0.76,1.23-2.45,2.51-1.78,3.89c0.83,1.69,2.95,0.94,4.51,0.94
		c24.16,0.03,48.34-0.43,72.48,0.24c8.43,0.23,13.09-2.3,17.16-9.62c7.35-13.23,15.85-25.82,23.91-38.65
		c3.21-5.11,3.29-5.08,6.6,0.19c2.12,3.39,4.27,6.76,6.43,10.12c1.59,2.47,0.99,3.4-1.98,3.55c-2.45,0.12-5.31-1.15-7.12,2.06
		c-2.19,3.91-4.75,7.63-7.22,11.39c-1.85,2.82-0.89,3.74,2.18,3.71c7.33-0.07,14.67,0.21,21.99-0.12c3.91-0.18,6.56,1.09,7.86,4.59
		c3.94,10.59,11.37,14.71,22.4,12.52c1.53-0.3,3.62,0.93,4.5-0.98c0.69-1.51-0.94-2.68-1.71-3.91
		c-15.62-24.98-31.25-49.95-46.87-74.94c-3.79-6.07-3.73-6.06-7.4-0.2c-12.28,19.61-24.58,39.21-36.87,58.82
		c-1.32,2.11-2.4,4.15-5.59,4.11c-13.66-0.15-27.33-0.09-40.99-0.04c-3.35,0.01-3.55-1.13-2.05-3.82
		c7.35-13.17,7.31-13.2,22.51-13.19c1.17,0,2.37-0.18,3.49,0.03c11.27,2.12,19.14-1.82,23.17-12.78c0.06-0.15,0.17-0.28,0.27-0.42
		c2.43-3.25,1.15-4.12-2.39-4.11c-20.33,0.07-40.66,0.07-60.98,0.01c-2.25-0.01-3.73,0.75-4.87,2.7c-2.2,3.73-4.52,7.39-6.89,11.01
		c-1.62,2.47-1.21,3.6,1.87,3.54C49.13,125.82,52.6,125.87,57.29,125.87z M98.98,91.73c6.66,0,13.42-0.73,19.95,0.16
		c10.97,1.5,18.59-1.83,22.59-12.43c0.56-1.48,2.58-2.73,1.67-4.36c-0.9-1.62-3.06-0.92-4.64-0.92c-16.81-0.03-33.7,1.03-50.41-0.29
		c-11.55-0.91-18.09,3.18-22.25,13.1c-0.06,0.15-0.18,0.28-0.27,0.42c-1.88,2.92-1.62,4.41,2.38,4.36
		C78.34,91.64,88.66,91.73,98.98,91.73z"/>
	<path class="st0" d="M331.9,122.39c0-28.8,0.09-57.6-0.09-86.4c-0.03-4.16,1.21-5.38,5.28-5.36c26.31,0.15,52.62-0.07,78.93,0.14
		c18.53,0.15,34.67,6.53,46.73,20.9c24.31,28.96,14.97,77.79-26.57,92.08c-7.79,2.68-15.83,3.85-24.04,3.87
		c-12.99,0.03-25.98,0.17-38.96-0.05c-3.99-0.07-5.15,1.28-5.12,5.13c0.13,18.81-0.09,37.63,0.13,56.44
		c0.05,4.4-1.19,5.82-5.64,5.64c-8.48-0.34-16.99-0.32-25.47-0.01c-4.32,0.16-5.29-1.44-5.27-5.47c0.15-28.97,0.08-57.94,0.08-86.9
		C331.89,122.39,331.89,122.39,331.9,122.39z M368.1,89.67c0.01,0,0.02,0,0.03,0c0,7.66,0,15.32,0,22.97c0,2.14,0.18,4.08,3.09,4.02
		c15.14-0.28,30.34,1,45.42-0.7c8.62-0.97,15.72-5.4,20-13.27c9.83-18.07-2.7-39.1-23.83-39.71c-13.31-0.39-26.64,0.04-39.96-0.2
		c-3.88-0.07-4.88,1.38-4.8,4.91C368.22,75.02,368.1,82.35,368.1,89.67z"/>
	<path class="st0" d="M683.7,149.91c0,19.48,0.01,38.95,0,58.43c0,6.34-0.03,6.34-6.6,6.34c-7.33,0-14.66-0.19-21.97,0.1
		c-3.83,0.15-4.95-1.25-4.84-4.87c0.08-2.71,1.6-6.58-0.98-7.86c-1.99-0.99-4.33,2.46-6.48,3.93
		c-28.92,19.87-70.31,10.23-88.62-20.71c-19.24-32.51-10.75-72.69,20.83-93.84c20.05-13.43,49.65-13.89,69.31,1.53
		c1.59,1.24,3.22,4.03,5.15,3.01c1.88-1,0.99-4.03,0.76-6.09c-0.53-4.95,1.09-6.79,6.34-6.44c7.29,0.49,14.65,0.3,21.96,0.02
		c3.87-0.15,5.3,0.98,5.21,5c-0.22,10.32-0.06,20.64-0.05,30.96c0,10.15,0,20.31,0,30.46C683.71,149.91,683.71,149.91,683.7,149.91z
		 M650.64,149.36c-0.12-22.15-15.51-37.98-36.94-37.97c-20.96,0-36.78,16.38-36.56,37.87c0.22,21.35,16.09,37.49,36.7,37.32
		C634.85,186.39,650.75,170.32,650.64,149.36z"/>
	<path class="st0" d="M767.4,160.74c6.36-13.33,12.11-25.49,17.96-37.6c6.05-12.53,12.24-24.99,18.26-37.53
		c1.04-2.17,2.73-2.11,4.56-2.12c9-0.02,17.99,0.05,26.99-0.09c3.85-0.06,4.18,1.3,2.62,4.44c-15.97,32.17-31.91,64.36-47.78,96.58
		c-11.84,24.03-23.59,48.11-35.36,72.18c-2.34,4.79-5.45,9.2-7.23,14.29c-0.68,1.95-2.51,1.91-4.2,1.91
		c-9.5,0-18.99-0.07-28.49,0.05c-3.73,0.05-3.69-1.36-2.27-4.13c10.62-20.92,20.96-41.98,31.86-62.75c3.04-5.8,2.86-10.3-0.07-16.11
		c-17.07-33.88-33.68-68-50.55-101.99c-1.65-3.32-1.12-4.38,2.6-4.33c9.66,0.11,19.33,0.12,28.99-0.04
		c2.94-0.05,4.37,1.05,5.65,3.68c10.53,21.68,21.22,43.28,31.89,64.89C764.08,154.57,765.44,157.02,767.4,160.74z"/>
	<path class="st0" d="M526.59,117.41c0,30.64-0.09,61.28,0.1,91.92c0.03,4.27-1.32,5.5-5.36,5.38c-7.66-0.23-15.33-0.27-22.98,0
		c-4.17,0.15-5.36-1.29-5.35-5.42c0.13-50.63,0.09-101.25,0.08-151.88c0-7.49,0.07-14.99-0.09-22.48c-0.06-2.87,0.69-4.66,3.66-5.55
		c8.91-2.67,17.78-5.49,26.64-8.35c2.98-0.96,3.46,0.52,3.44,2.94c-0.05,5.66-0.02,11.32-0.02,16.99c0,25.48,0,50.96,0,76.44
		C526.67,117.41,526.63,117.41,526.59,117.41z"/>
</g>
</svg>
