<svg id="Livello_1" data-name="Livello 1" xmlns="http://www.w3.org/2000/svg" viewBox="0 0 36.71 17.69"><defs><style>.cls-1{fill:#626261;}</style></defs><path class="cls-1" d="M7.68.22C7.82,0,8,0,8.2,0h14a7.19,7.19,0,0,1-.88,1.54c-.4.67-.72,1.56-1.33,1.9s-1.5.09-2.27.09H5.61C6.35,2.36,7,1.3,7.68.22Z"/><path class="cls-1" d="M17.92,17.67c-5.78,0-11.57,0-17.36,0-.18,0-.44.13-.54-.1s.12-.32.21-.47q1.86-2.92,3.7-5.85c.11-.17.21-.34.36-.59H1.11A15.56,15.56,0,0,0,2.29,8.73,2.69,2.69,0,0,1,5.3,7c3.63.13,7.26,0,10.89,0H17c-.76,1.18-1.45,2.26-2.13,3.35-.16.25-.39.18-.61.18-1.63,0-3.26,0-4.9,0a.74.74,0,0,0-.76.41C8,12,7.3,13,6.65,14a1,1,0,0,0,.65.1c2.81,0,5.63,0,8.44,0a1,1,0,0,0,1-.53q4-6.42,8.05-12.82c.14-.23.29-.44.48-.73.87,1.33,1.71,2.59,2.54,3.85L36.43,17c.11.18.38.35.24.58s-.38.06-.58.07c-1,0-2,0-3.06,0a.74.74,0,0,1-.72-.39c-.56-.88-1.17-1.72-1.71-2.61a1,1,0,0,0-1-.54c-2,0-3.94,0-6,0,.72-1.19,1.39-2.28,2-3.37.14-.24.36-.16.55-.16h1.82c-.82-1.24-1.55-2.4-2.33-3.52-.32-.45-.39.09-.48.22-1.32,2.06-2.62,4.12-3.94,6.19-.77,1.22-1.56,2.44-2.32,3.67A1,1,0,0,1,17.92,17.67Z"/></svg>