<?xml version="1.0" encoding="utf-8"?>
<!-- Generator: Adobe Illustrator 25.0.0, SVG Export Plug-In . SVG Version: 6.00 Build 0)  -->
<svg version="1.1" id="Livello_1" xmlns="http://www.w3.org/2000/svg" xmlns:xlink="http://www.w3.org/1999/xlink" x="0px" y="0px"
	 viewBox="0 0 151.2 17.89" style="enable-background:new 0 0 151.2 17.89;" xml:space="preserve">
<style type="text/css">
	.st0{fill:#551A8B;}
</style>
<g>
	<g>
		<path class="st0" d="M151.2,14.96c-0.11-0.09-0.11,0.03-0.13,0.08c-0.41,1.36-1.4,2.12-2.68,2.51c-2.09,0.63-4.08,0.44-5.88-0.87
			c-0.92-0.67-1.48-1.61-1.72-2.73c-0.09-0.43-0.07-0.44,0.38-0.44c0.68,0,1.37,0.01,2.05,0c0.19,0,0.28,0.05,0.33,0.24
			c0.28,1.07,1.06,1.59,2.09,1.79c0.57,0.11,1.14,0.08,1.69-0.13c0.19-0.07,0.36-0.16,0.5-0.29c0.47-0.42,0.46-0.99-0.03-1.39
			c-0.4-0.32-0.88-0.46-1.36-0.6c-1.11-0.33-2.25-0.54-3.31-1.02c-1-0.46-1.83-1.1-2.07-2.25c-0.35-1.65,0.37-3.15,1.95-3.84
			c2.14-0.93,4.24-0.79,6.18,0.58c0.99,0.7,1.54,1.71,1.77,2.89c0.04,0.2,0.02,0.32-0.24,0.32c-0.75-0.01-1.49-0.01-2.24,0
			c-0.19,0-0.26-0.06-0.32-0.25c-0.41-1.44-2.17-2.24-3.55-1.62c-0.37,0.17-0.63,0.43-0.67,0.85c-0.03,0.41,0.2,0.69,0.53,0.9
			c0.72,0.44,1.54,0.59,2.34,0.81c0.72,0.19,1.44,0.37,2.12,0.67c0.96,0.43,1.8,0.99,2.13,2.07c0.01,0.03,0.04,0.06,0.06,0.08
			c0.05,0.04,0.05-0.02,0.07-0.04c0,0.49,0,0.98,0,1.47c-0.04-0.01-0.06,0-0.06,0.04c0,0.04,0.03,0.05,0.06,0.03
			C151.2,14.86,151.2,14.91,151.2,14.96z"/>
		<path class="st0" d="M0.01,9.23c0-2.64,0-5.28-0.01-7.92C0,1,0.06,0.9,0.4,0.9c3.79,0.01,7.58,0.01,11.37,0
			c0.32,0,0.42,0.07,0.41,0.4c-0.03,0.71-0.03,1.42,0,2.13c0.02,0.36-0.12,0.41-0.43,0.41c-2.67-0.01-5.33,0-8-0.01
			c-0.33,0-0.41,0.09-0.4,0.41c0.02,1.06,0.02,2.13,0,3.19c-0.01,0.3,0.09,0.36,0.37,0.36c2.14-0.01,4.28,0,6.42-0.01
			c0.29,0,0.37,0.07,0.37,0.36c-0.02,0.73-0.02,1.47,0,2.2c0.01,0.26-0.07,0.33-0.33,0.33c-2.14-0.01-4.28,0-6.42-0.01
			c-0.32,0-0.41,0.08-0.4,0.4c0.02,1.11,0.02,2.22,0,3.34c-0.01,0.32,0.1,0.38,0.39,0.37c2.68-0.01,5.36,0,8.03-0.01
			c0.32,0,0.42,0.07,0.41,0.4c-0.03,0.72-0.03,1.44,0,2.16c0.01,0.31-0.11,0.35-0.38,0.35c-2.36-0.01-4.72,0-7.08,0
			c-1.44,0-2.89-0.01-4.33,0.01C0.08,17.66,0,17.57,0,17.26C0.01,14.59,0.01,11.91,0.01,9.23z"/>
		<path class="st0" d="M116.42,0.19c0.67,1.36,1.31,2.65,1.94,3.94c2.16,4.38,4.33,8.75,6.5,13.13c0.19,0.38,0.19,0.38-0.25,0.38
			c-0.9,0-1.81-0.01-2.71,0.01c-0.26,0.01-0.38-0.09-0.49-0.32c-0.46-1.01-0.96-2-1.42-3c-0.09-0.19-0.19-0.26-0.41-0.26
			c-2.14,0.01-4.28,0.01-6.42,0c-0.23,0-0.34,0.07-0.44,0.28c-0.46,1.01-0.94,2.01-1.39,3.02c-0.09,0.21-0.21,0.29-0.44,0.29
			c-0.9-0.01-1.81-0.02-2.71,0c-0.36,0.01-0.34-0.09-0.21-0.36c2.32-4.68,4.63-9.37,6.95-14.05C115.4,2.25,115.89,1.26,116.42,0.19z
			 M118.61,11.5c-0.77-1.62-1.53-3.21-2.32-4.87c-0.76,1.66-1.5,3.25-2.25,4.87C115.59,11.5,117.08,11.5,118.61,11.5z"/>
		<path class="st0" d="M30.19,14.08c-0.35,0.92-0.88,1.67-1.59,2.29c-3.35,2.95-9.32,1.44-10.46-3.22
			c-0.82-3.36,1.13-7.04,5.12-7.64c3.25-0.49,6.29,1.66,6.95,4.89c0.13,0.64,0.18,1.28,0.18,1.93c0,0.29-0.11,0.36-0.39,0.36
			c-2.81-0.01-5.63-0.01-8.44-0.01c-0.44,0-0.45,0.01-0.28,0.41c0.77,1.83,3.07,2.67,4.75,1.73c0.19-0.11,0.39-0.22,0.52-0.4
			c0.21-0.31,0.48-0.34,0.82-0.34C28.3,14.09,29.22,14.08,30.19,14.08z M21.21,10.46c0.03,0.01,0.06,0.03,0.1,0.03
			c1.84,0,3.69,0,5.53,0.01c0.35,0,0.22-0.19,0.17-0.35c-0.39-1.24-1.61-2.09-2.9-2.03C22.69,8.16,21.5,9.12,21.21,10.46z"/>
		<path class="st0" d="M59.38,11.67c0.01-3.54,2.75-6.2,6.36-6.18c3.58,0.02,6.31,2.73,6.29,6.24c-0.02,3.49-2.81,6.19-6.38,6.16
			C62.09,17.86,59.37,15.16,59.38,11.67z M62.39,11.7c-0.01,1.95,1.38,3.4,3.28,3.43c1.87,0.03,3.32-1.43,3.35-3.38
			c0.02-1.98-1.37-3.46-3.27-3.48C63.79,8.26,62.4,9.68,62.39,11.7z"/>
		<path class="st0" d="M76.43,7.16c1.21-1.49,2.74-1.91,4.46-1.62c1.93,0.33,3.17,1.7,3.47,3.66c0.06,0.4,0.08,0.8,0.08,1.2
			c0,2.3,0,4.6,0.01,6.89c0,0.29-0.08,0.37-0.37,0.37c-0.77-0.02-1.54-0.02-2.31,0c-0.3,0.01-0.36-0.1-0.36-0.37
			c0.01-2.26,0.01-4.52,0-6.78c0-1.22-0.68-2.16-1.75-2.47c-1.67-0.48-3.23,0.69-3.24,2.42c0,2.26-0.01,4.52,0.01,6.78
			c0,0.35-0.11,0.42-0.43,0.41c-0.76-0.02-1.52-0.01-2.27,0c-0.24,0-0.35-0.04-0.35-0.32c0.01-3.78,0.01-7.55,0-11.33
			c0-0.21,0.04-0.3,0.28-0.3c0.83,0.01,1.66,0.01,2.49,0c0.21,0,0.28,0.05,0.27,0.27C76.42,6.34,76.43,6.7,76.43,7.16z"/>
		<path class="st0" d="M102.82,10.4c-0.97,0-1.93,0-2.9,0c-0.21,0-0.22-0.16-0.28-0.29c-0.62-1.23-1.61-1.87-3-1.83
			c-1.57,0.04-2.9,1.32-3.04,2.89c-0.08,0.82-0.01,1.61,0.41,2.34c0.63,1.11,1.61,1.66,2.86,1.64c1.25-0.02,2.18-0.65,2.73-1.78
			c0.13-0.26,0.27-0.34,0.55-0.33c0.88,0.02,1.76,0.01,2.64,0.01c-0.25,2.09-2.29,4.8-5.94,4.83c-3.55,0.03-6.19-2.6-6.31-6.02
			c-0.11-3.26,2.36-6.11,5.61-6.36C100.02,5.19,102.43,7.92,102.82,10.4z"/>
		<path class="st0" d="M42.16,10.4c-0.4,0-0.81-0.01-1.21,0.01c-0.23,0.01-0.33-0.07-0.43-0.28C39.61,8.22,37.3,7.69,35.65,9
			c-0.66,0.53-1.03,1.24-1.15,2.06c-0.18,1.28,0.08,2.44,1.09,3.32c1.59,1.38,3.96,0.88,4.88-1.01c0.13-0.26,0.26-0.35,0.55-0.34
			c0.79,0.02,1.59,0.02,2.38,0c0.28-0.01,0.32,0.07,0.24,0.33c-0.66,2.32-2.17,3.77-4.5,4.34c-3,0.73-6.08-0.76-7.22-3.54
			c-1.55-3.74,0.57-7.99,4.78-8.62c3.22-0.48,6.22,1.5,6.95,4.57c0.06,0.25,0.02,0.29-0.22,0.29C43.01,10.39,42.59,10.4,42.16,10.4z
			"/>
		<path class="st0" d="M133.74,9.08c0-1.86,0-3.72-0.01-5.57c0-0.24,0.05-0.36,0.3-0.43c0.81-0.23,1.61-0.49,2.4-0.76
			c0.26-0.09,0.31-0.04,0.31,0.22c-0.01,0.95,0,1.91-0.01,2.86c0,0.26,0.07,0.33,0.33,0.32c0.93-0.02,1.86,0.01,2.79-0.01
			c0.3-0.01,0.36,0.09,0.36,0.37c-0.02,0.64-0.02,1.27,0,1.91c0.01,0.24-0.06,0.31-0.3,0.31c-0.95-0.01-1.91,0-2.86-0.01
			c-0.24,0-0.3,0.07-0.3,0.31c0.01,1.7,0,3.4,0.01,5.1c0,0.83,0.38,1.23,1.23,1.26c0.65,0.02,1.3,0.02,1.94,0
			c0.23,0,0.29,0.06,0.29,0.29c-0.01,0.71-0.01,1.42,0,2.13c0,0.22-0.07,0.3-0.29,0.29c-1.08-0.03-2.15,0.03-3.23-0.05
			c-1.8-0.13-2.95-1.34-2.95-3.13C133.74,12.68,133.74,10.88,133.74,9.08z"/>
		<path class="st0" d="M44.71,9.16c0-1.88,0.01-3.76-0.01-5.64c0-0.27,0.09-0.38,0.34-0.45c0.77-0.23,1.54-0.46,2.29-0.73
			c0.33-0.12,0.36,0,0.35,0.28c-0.01,0.93,0,1.86-0.01,2.79c0,0.26,0.08,0.33,0.33,0.32c0.95-0.01,1.91,0,2.86-0.01
			c0.23,0,0.32,0.05,0.32,0.3c-0.02,0.66-0.02,1.32,0,1.98c0.01,0.25-0.09,0.3-0.32,0.3c-0.95-0.01-1.91,0-2.86-0.01
			c-0.26,0-0.33,0.07-0.33,0.33c0.01,1.67,0,3.35,0.01,5.02c0,0.88,0.41,1.29,1.3,1.32c0.64,0.02,1.27,0.01,1.91,0
			c0.23,0,0.29,0.07,0.29,0.29c-0.01,0.7-0.01,1.39,0,2.09c0,0.23-0.05,0.33-0.3,0.32c-1.07-0.03-2.15,0.04-3.23-0.05
			c-1.56-0.13-2.96-1.13-2.94-3.09C44.73,12.73,44.71,10.94,44.71,9.16z"/>
		<path class="st0" d="M16.62,8.79c0,2.81-0.01,5.62,0.01,8.43c0,0.34-0.09,0.44-0.43,0.43c-0.76-0.02-1.52-0.02-2.27,0
			c-0.29,0.01-0.37-0.08-0.37-0.37c0.01-3.69,0.01-7.38,0.01-11.07c0-1.65,0.01-3.3-0.01-4.95c0-0.26,0.07-0.39,0.33-0.46
			c0.78-0.23,1.56-0.48,2.34-0.72c0.4-0.12,0.4-0.12,0.4,0.29C16.62,3.17,16.62,5.98,16.62,8.79z"/>
		<path class="st0" d="M128.82,7.69c0.4-0.61,0.81-1.18,1.4-1.59c0.68-0.48,1.43-0.66,2.25-0.61c0.2,0.01,0.24,0.09,0.24,0.27
			c-0.01,0.73-0.02,1.47,0,2.2c0.01,0.34-0.08,0.44-0.42,0.41c-0.9-0.08-1.72,0.13-2.42,0.72c-0.68,0.59-1.05,1.33-1.05,2.24
			c0,1.97-0.01,3.93,0.01,5.9c0,0.32-0.06,0.45-0.41,0.43c-0.74-0.03-1.49-0.03-2.24,0c-0.32,0.01-0.41-0.07-0.41-0.4
			c0.01-3.48,0.01-6.96,0.01-10.45c0-0.28,0.01-0.56,0-0.84c-0.01-0.19,0.05-0.25,0.25-0.25c0.86,0.01,1.71,0.01,2.57,0
			c0.21,0,0.24,0.08,0.24,0.26C128.82,6.54,128.82,7.12,128.82,7.69z"/>
		<path class="st0" d="M55.38,7.7c0.4-0.59,0.78-1.14,1.35-1.56c0.69-0.51,1.46-0.71,2.3-0.66c0.2,0.01,0.24,0.08,0.24,0.26
			c-0.01,0.79-0.01,1.59,0,2.38c0,0.21-0.08,0.24-0.26,0.23c-0.41-0.02-0.83-0.03-1.24,0.06c-1.42,0.32-2.39,1.51-2.4,2.97
			c0,1.97-0.01,3.93,0.01,5.9c0,0.29-0.08,0.37-0.36,0.37c-0.79-0.02-1.59-0.01-2.38,0c-0.23,0-0.29-0.07-0.29-0.29
			c0.01-3.79,0.01-7.57,0-11.36c0-0.22,0.06-0.29,0.29-0.29c0.82,0.01,1.64,0.02,2.46,0c0.26-0.01,0.3,0.1,0.29,0.32
			C55.37,6.58,55.38,7.14,55.38,7.7z"/>
		<path class="st0" d="M89.2,11.69c0,1.86-0.01,3.71,0.01,5.57c0,0.29-0.05,0.4-0.37,0.39c-0.77-0.02-1.54-0.02-2.31,0
			c-0.26,0-0.36-0.04-0.36-0.34c0.01-3.76,0.01-7.52,0-11.28c0-0.25,0.07-0.33,0.32-0.33c0.81,0.02,1.61,0.02,2.42,0
			c0.25,0,0.3,0.07,0.3,0.31C89.2,7.91,89.2,9.8,89.2,11.69z"/>
		<path class="st0" d="M85.74,2.24c0.01-1.07,0.88-1.94,1.93-1.94c1.06,0,1.97,0.91,1.97,1.97c0,1.06-0.91,1.96-1.97,1.96
			C86.6,4.22,85.74,3.33,85.74,2.24z"/>
	</g>
</g>
</svg>
