<?xml version="1.0" encoding="utf-8"?>
<!-- Generator: Adobe Illustrator 25.0.0, SVG Export Plug-In . SVG Version: 6.00 Build 0)  -->
<svg version="1.1" id="Livello_1" xmlns="http://www.w3.org/2000/svg" xmlns:xlink="http://www.w3.org/1999/xlink" x="0px" y="0px"
	 viewBox="0 0 1590 670" style="enable-background:new 0 0 1590 670;" xml:space="preserve">
<style type="text/css">
	.st0{fill:#FFFFFF;}
	.st1{fill:#060608;}
	.st2{fill:#F7F7F8;}
</style>
<g>
	<path class="st0" d="M809,0c9.48,1.64,19.06,2.85,28.42,4.99C908.46,21.3,963.9,80.14,976.13,151.96
		c17.03,99.9-47.08,192.92-146.62,212.75c-97.44,19.41-195.14-45.82-214.61-143.29c-19.86-99.42,40.96-194.04,139.6-216.94
		C763.22,2.45,772.16,1.47,781,0C790.33,0,799.67,0,809,0z M786.02,131.59c-0.94-0.33-1.23-0.52-1.53-0.52
		c-28.16-0.02-56.33-0.04-84.49-0.01c-1.07,0-2.66,0.19-3.12,0.88c-4.7,7.08-9.21,14.29-14.32,22.32c7.72,0,14.12,0,21.36,0
		c-9.77,15.47-19.12,30.28-28.77,45.55c1.65,0.12,2.45,0.23,3.26,0.23c37.66,0,75.32,0.05,112.98-0.17c1.9-0.01,4.48-1.84,5.58-3.57
		c13.46-21.02,26.71-42.18,40.02-63.3c0.94-1.49,1.94-2.93,3.24-4.89c5.58,8.87,10.74,17.08,16.28,25.88
		c-4.53,0-8.03-0.11-11.51,0.06c-1.16,0.06-2.78,0.54-3.34,1.39c-4.54,6.88-8.88,13.89-13.74,21.6c8.79,0,16.58-0.03,24.37,0.01
		c6.15,0.03,13.44-1.86,18.14,0.79c4.89,2.76,7.79,9.69,10.64,15.26c2.91,5.69,6.73,7.67,13,7.04c6.12-0.61,12.34-0.13,19.25-0.13
		c-24.68-39.04-48.73-77.07-73.07-115.58c-1.36,2.02-2.31,3.35-3.19,4.72c-17.73,27.97-35.49,55.93-53.12,83.97
		c-1.77,2.81-3.63,4.02-7.09,3.98c-18.16-0.2-36.33-0.09-54.49-0.1c-1.4,0-2.8-0.17-4.94-0.31c4.42-6.89,8.24-13.29,12.56-19.33
		c1.18-1.65,3.83-3.12,5.85-3.18c10.82-0.31,21.66-0.05,32.49-0.25c1.66-0.03,3.96-0.98,4.85-2.27
		C777.58,145.24,781.62,138.56,786.02,131.59z M820.51,85.63c-0.96-0.35-1.25-0.55-1.55-0.55c-29.96-0.03-59.92-0.05-89.88-0.02
		c-1.07,0-2.68,0.15-3.14,0.83c-4.69,7.1-9.19,14.32-14.14,22.13c31.45,0,61.74,0.02,92.02-0.08c1.22,0,2.93-0.82,3.59-1.81
		C811.82,99.51,816.01,92.74,820.51,85.63z M829.4,241.45c6.27-5.34,9.06-16.32,5.33-23.22c-1.41-2.61-4.67-5.61-7.34-5.88
		c-7.86-0.78-15.85-0.28-23.97-0.28c0,16.64,0,32.84,0,49.34c2.89,0,5.46,0,8.6,0c0-6.43,0-12.67,0-18.72
		c5.81-1.7,9.44-0.5,10.89,5.35c0.67,2.71,2.07,5.24,3.15,7.85c2.74,6.64,3.12,6.82,11.35,5.01
		C834.69,254.33,832.02,247.84,829.4,241.45z M792.58,236.9c-0.01,0-0.01,0-0.02,0c0-4.83,0.2-9.67-0.05-14.49
		c-0.35-6.64-4.33-10.31-10.93-10.44c-3.66-0.07-7.33-0.06-11,0c-6.61,0.11-10.9,3.83-11.08,10.3c-0.26,9.66-0.25,19.33,0.02,28.99
		c0.17,6.04,4.04,9.8,10.16,10.3c3.97,0.32,8,0.3,11.99,0.07c6.81-0.4,10.6-4.34,10.88-11.22
		C792.72,245.91,792.58,241.4,792.58,236.9z M706.59,226.7c1.17-10.55-2.53-14.73-12.57-14.74c-2.66,0-5.33-0.01-7.99,0
		c-8.49,0.04-12.12,3.62-12.21,12.1c-0.02,2-0.06,4,0.05,5.99c0.34,5.95,4.23,9.74,10.27,9.99c2.16,0.09,4.33,0.03,6.5,0.04
		c7.48,0.01,7.87,0.44,7.67,7.92c-0.07,2.65-0.28,5.62-3.55,5.51c-4.14-0.13-10.11,2.79-11.9-2.88c-1.75-5.55-4.76-4.69-8.48-4.26
		c-1.7,10.6,2.02,15.19,12.16,15.34c0.67,0.01,1.33,0,2,0c16.78,0.02,19.15-2.41,18.5-19.04c-0.25-6.36-4.38-10.48-10.78-10.66
		c-3.33-0.09-6.66,0-9.99-0.04c-3.57-0.05-3.84-2.63-3.77-5.24c0.08-2.69-0.73-5.93,3.29-6.75c7.46-1.52,10.88,0.07,14.17,6.73
		C702.02,226.7,704.15,226.7,706.59,226.7z M882.2,246.35c-0.72,9.6,1.63,14.13,8.36,14.91c5.24,0.61,10.66,0.53,15.92-0.01
		c5.38-0.55,8.43-4.48,8.68-9.92c0.62-13.93,0.04-20.49-18.07-19.35c-0.17,0.01-0.34-0.02-0.5,0c-4.79,0.67-5.97-1.79-5.97-6.13
		c0-4.51,1.62-6.52,6.21-6c1.81,0.2,3.74-0.27,5.47,0.17c1.4,0.35,3.47,1.4,3.7,2.47c1.21,5.65,4.96,4.48,8.65,4.02
		c1.28-10.44-2.33-14.57-12.46-14.58c-3.5,0-7-0.13-10.49,0.05c-5.28,0.26-9.35,4.29-9.7,9.57c-0.18,2.65-0.13,5.33-0.04,7.99
		c0.22,6.17,4.23,10.25,10.35,10.47c3.16,0.12,6.33,0.13,9.49,0.02c3.16-0.11,4.83,1.37,4.65,4.42c-0.19,3.23,1.68,7.44-3.02,9.02
		c-6.88,2.32-11.72-0.16-14.23-7.15C887.03,246.35,884.77,246.35,882.2,246.35z M726.12,261.34c0-5.99,0-11.74,0-18.08
		c2.8,0,5.09,0.01,7.37,0c2.33-0.01,4.67,0.06,7-0.09c5.26-0.35,9.13-3.46,9.58-8.44c0.43-4.78,0.47-9.68-0.04-14.44
		c-0.52-4.87-3.98-7.91-8.73-8.16c-7.78-0.42-15.59-0.11-24.01-0.11c0,2.17,0,3.95,0,5.74c0,12.16,0,24.33,0,36.49
		C717.29,262.12,717.29,262.12,726.12,261.34z M854.13,219.94c0,14.23,0,27.78,0,41.42c3.07,0,5.63,0,8.76,0
		c0-13.88,0-27.41,0-41.51c4.44,0,8.34,0,12.3,0c0-2.84,0-5.11,0-7.43c-11.44,0-22.61,0-33.6,0c0,2.71,0,4.96,0,7.53
		C845.72,219.94,849.5,219.94,854.13,219.94z"/>
	<path class="st0" d="M0,669c10.12-9.83,20.29-19.6,30.34-29.51c41.87-41.3,83.51-82.82,125.61-123.88
		c18.28-17.83,39.03-32.12,64.12-39.09c17.76-4.94,35.96-7.3,54.26-7.36c128.45-0.46,256.9-0.58,385.35-0.8
		c1.09,0,2.19,0.11,4.16,0.23c-1.7,1.82-2.74,3.03-3.88,4.15c-23.07,22.64-46.18,45.23-69.17,67.94c-2.44,2.41-4.87,3.37-8.31,3.36
		c-91.47-0.08-182.93-0.09-274.4-0.02c-18.32,0.01-36.63,0.63-54.48,5.46c-16.74,4.53-30.23,14.5-42.45,26.23
		c-32.32,31.04-64.45,62.29-96.64,93.46c-0.23,0.22-0.34,0.55-0.51,0.83c-36.67,0-73.35,0.01-110.02-0.04
		C2.65,669.96,1.33,669.33,0,669z"/>
	<path class="st0" d="M816,670c0.01-17.5-0.03-34.99,0.03-52.49c0.13-39.06,22.82-66.87,61.16-74.36
		c8.93-1.74,18.16-2.61,27.26-2.69c34.66-0.3,69.32-0.12,103.97-0.12c1.98,0,3.97,0,6.32,0c0-3.73,0-7.15,0-11.09
		c-65.93,0-131.98,0-198.38,0c0-20.24,0-39.96,0-60.05c1.63-0.08,3.24-0.24,4.85-0.24c61.15-0.01,122.3-0.02,183.46,0
		c18.8,0,36.35,4.44,51.52,15.89c19.97,15.08,27.41,35.56,23.47,59.9c-4.06,25.05-19.12,41.5-43.04,48.87
		c-10.16,3.13-21.22,4.44-31.9,4.59c-37.82,0.53-75.65,0.21-113.47,0.21c-1.98,0-3.96,0-6.4,0c0,3.88,0,7.41,0,11.38
		c64.24,0,128.32,0,193.14,0c0,20.36,0,40.29,0,60.21C990.67,670,903.33,670,816,670z"/>
	<path class="st0" d="M1090,670c0.01-17.49,0-34.99,0.02-52.48c0.05-38.97,22.8-66.9,61.13-74.37c8.93-1.74,18.16-2.61,27.26-2.69
		c34.65-0.3,69.31-0.12,103.97-0.12c1.99,0,3.97,0,6.33,0c0-3.71,0-7.13,0-11.09c-65.9,0-131.95,0-198.34,0c0-20.25,0-39.96,0-60.06
		c1.62-0.08,3.23-0.24,4.84-0.24c61.15-0.01,122.3-0.02,183.44-0.01c18.8,0,36.35,4.45,51.52,15.9
		c19.98,15.08,27.39,35.58,23.46,59.91c-4.05,25.06-19.13,41.49-43.04,48.86c-10.16,3.13-21.22,4.44-31.89,4.59
		c-37.81,0.53-75.64,0.21-113.46,0.21c-1.98,0-3.96,0-6.38,0c0,3.91,0,7.43,0,11.4c64.27,0,128.35,0,192.15,0
		c0,20.36,0,40.27,0,60.19C1264,670,1177,670,1090,670z"/>
	<path class="st0" d="M135,670c0.77-1.06,1.4-2.25,2.32-3.16c27.71-27.67,55.63-55.14,83.11-83.03
		c17.45-17.71,38.48-26.22,63.03-26.85c14.99-0.39,29.97-0.99,44.96-1.01c79.99-0.1,159.98-0.05,239.97-0.05c1.98,0,3.96,0,6.74,0
		c-1.19,1.49-1.85,2.51-2.7,3.35c-21.43,21.46-42.82,42.97-64.44,64.24c-1.82,1.79-5.22,2.79-7.89,2.8
		c-56.99,0.16-113.98,0.04-170.98,0.19c-11.47,0.03-22.96,0.68-34.41,1.48c-8.57,0.6-16.13,4.27-22.3,10.16
		C261.45,648.58,250.79,659.35,240,670C205,670,170,670,135,670z"/>
	<path class="st0" d="M479,670c1.25-1.53,2.38-3.17,3.77-4.56c64.3-64.34,128.64-128.64,192.88-193.03
		c2.94-2.95,5.84-4.18,10.02-4.16c37.65,0.16,75.3,0.09,112.95,0.09c1.75,0,3.5,0,6.32,0c-1.91,2.08-2.95,3.3-4.09,4.43
		c-64.63,64.48-129.27,128.95-193.89,193.44c-1.13,1.13-1.99,2.52-2.98,3.79C562.33,670,520.67,670,479,670z"/>
	<path class="st0" d="M1410,670c-11.06-2.57-18.25-9.05-20.45-20.44c-0.44-2.27-0.58-4.62-0.58-6.94
		c-0.03-49.33-0.04-98.66-0.02-147.98c0.01-15.4,8.48-24.57,23.83-25.85c2.15-0.18,4.33-0.18,6.49-0.18
		c46.16-0.01,92.33,0.4,138.48-0.23c16.1-0.22,27.62,4.16,32.25,20.63c0,53.67,0,107.33,0,161c-2.45,8.54-7.22,15.02-15.99,17.91
		c-2.32,0.76-4.67,1.4-7.01,2.09C1514.67,670,1462.33,670,1410,670z M1489.91,473.75c-24.67,0-49.33-0.06-74,0.02
		c-14.55,0.05-21.94,7.47-21.94,21.8c-0.02,48.83-0.02,97.66,0,146.5c0.01,15.21,7.49,22.66,22.76,22.71
		c11.33,0.04,22.67,0.01,34,0.01c37.17,0,74.33,0.05,111.5-0.03c15.24-0.03,22.77-7.67,22.78-22.76c0.01-48.67,0.03-97.33-0.01-146
		c-0.01-14.66-7.57-22.23-22.09-22.25C1538.57,473.72,1514.24,473.75,1489.91,473.75z"/>
	<path class="st0" d="M678,670c0-8.29,0-16.58,0-24.68c4.66-1.67,7.03-0.59,8.19,3.88c1.21,4.62,3.17,9.04,5.21,14.67
		c2-5.65,3.62-10.22,5.23-14.79c1.72-4.86,1.72-4.86,7.36-3.88c0,8.23,0,16.51,0,24.8c-1.33,0-2.67,0-4,0c0-5.54,0-11.07,0-16.61
		c-0.26-0.06-0.53-0.12-0.79-0.18c-2.07,5.6-4.14,11.2-6.21,16.79c-1.33,0-2.67,0-4,0c-1.79-5.55-3.58-11.1-5.36-16.65
		c-0.55,0.12-1.09,0.24-1.64,0.36c0,5.43,0,10.86,0,16.29C680.67,670,679.33,670,678,670z"/>
	<path class="st0" d="M663,670c0-6.95,0-13.91,0-21.33c-2.24-0.12-4.21-0.08-6.11-0.4c-0.69-0.12-1.69-1.13-1.7-1.74
		c0-0.62,1.03-1.78,1.63-1.8c5.47-0.14,10.94-0.15,16.41-0.01c0.68,0.02,1.35,1.05,2.02,1.62c-0.72,0.68-1.55,2.02-2.15,1.93
		c-5.84-0.88-5.87,2.65-5.76,6.85c0.13,4.96-0.21,9.93-0.35,14.89C665.67,670,664.33,670,663,670z"/>
	<path class="st0" d="M812.21,235.03c0-5.88,0-10.14,0-15.64c4.82,0.72,9.86,0.46,13.64,2.53c1.58,0.86,1.8,8.86,0.29,9.78
		C822.46,233.95,817.42,233.97,812.21,235.03z"/>
	<path class="st0" d="M768.2,236.4c0-3.82-0.02-7.64,0.01-11.46c0.03-3.44,1.6-5.3,5.24-4.97c0.66,0.06,1.33,0.01,1.99,0.01
		c8.35-0.02,8.43,0.06,8.44,8.29c0,6.15,0.03,12.29-0.01,18.44c-0.04,5.99-0.89,6.79-7.02,6.83c-1.16,0.01-2.33-0.04-3.49,0
		c-3.59,0.13-5.15-1.75-5.16-5.17C768.19,244.38,768.2,240.39,768.2,236.4z"/>
	<path class="st0" d="M726.27,236.1c0-6.23,0-10.82,0-16.62c4.96,0.63,10.46,0.02,14.08,2.33c1.91,1.22,2.13,9.8,0.29,11.12
		C737.15,235.44,731.62,235.12,726.27,236.1z"/>
	<path class="st0" d="M1414.58,536.02c10.23-10.57,19.98-20.85,29.97-30.89c5.56-5.59,12.75-7.89,20.46-7.94
		c25-0.18,49.99-0.12,74.99-0.14c0.27,0,0.54,0.26,0.62,0.3c-4.25,4.5-8.41,9.18-12.94,13.47c-1.08,1.02-3.41,0.95-5.17,0.96
		c-17.5,0.09-35,0.19-52.49,0.08c-6.56-0.04-11.99,2.1-16.61,6.7c-5.07,5.06-10.15,10.13-15.49,14.89
		c-1.54,1.38-3.96,2.33-6.03,2.45C1426.12,536.24,1420.34,536.02,1414.58,536.02z"/>
	<path class="st0" d="M1488.88,657.98c-24.33,0-48.66,0.01-72.99-0.01c-10.4-0.01-15.02-4.4-15.14-14.8
		c-0.15-12.66-0.13-25.33,0.01-37.99c0.09-8.35,3.57-12.15,11.78-13.33c2.13-0.31,4.31-0.38,6.47-0.38
		c46.99-0.02,93.99-0.02,140.98-0.01c2,0,4,0.01,5.99,0.2c7.49,0.71,11.78,4.59,11.96,12.15c0.34,14.32,0.31,28.66,0,42.98
		c-0.16,7.1-6.02,11.15-15.07,11.17C1538.21,658,1513.54,657.98,1488.88,657.98z M1488.94,655.34c11.66,0,23.32,0,34.99,0
		c13.16,0,26.32,0.11,39.48-0.05c8.3-0.1,12.16-3.29,12.31-10.57c0.27-12.99,0.33-25.99,0-38.98c-0.21-8.02-4.02-11.68-11.31-11.68
		c-49.65-0.05-99.29-0.07-148.94,0.01c-8.71,0.01-12.35,3.92-12.39,12.68c-0.06,11.49-0.04,22.99-0.01,34.49
		c0.03,10.84,3.21,14.09,13.9,14.1C1440.96,655.36,1464.95,655.34,1488.94,655.34z"/>
	<path class="st0" d="M1524.98,514.05c-4.97,4.88-8.85,8.91-13.02,12.61c-1.05,0.93-3.05,1.1-4.62,1.11
		c-11.14,0.11-22.28,0.19-33.42,0.04c-4.13-0.06-7.64,1.02-10.11,4.28c-2.62,3.45-5.93,4.25-10.01,3.99
		c-4.4-0.28-8.82-0.06-12.97-0.06c6-6.39,11.54-13,17.89-18.7c2.43-2.17,6.72-3.08,10.19-3.13
		C1487.03,513.89,1505.15,514.05,1524.98,514.05z"/>
	<path class="st0" d="M1505.78,536.02c13.23-13.19,25.36-25.31,37.55-37.36c0.85-0.84,2.26-1.55,3.43-1.58
		c7.1-0.14,14.2-0.07,21.3-0.07c0.27,0.4,0.55,0.8,0.82,1.2c-2.17,1.94-4.42,3.79-6.49,5.83c-9.81,9.73-19.49,19.6-29.44,29.19
		c-1.57,1.52-4.21,2.54-6.42,2.66C1520.12,536.25,1513.67,536.02,1505.78,536.02z"/>
	<path class="st0" d="M1491.69,575.34c-0.56-0.83-1.49-1.61-1.62-2.5c-0.26-1.79-0.09-3.64-0.09-5.47
		c-0.01-7.16-0.52-7.56-8.04-6.18c-1.32,4.36,0.77,9.77-1.27,14.05c-0.86-0.2-1.71-0.39-2.57-0.59c0-4.44,0-8.88,0-13.71
		c-2.75,0-5.14,0-8.06,0c0,4.56,0,9.14,0,13.77c-3.83-0.45-4.79-6.92-2.91-17c7,0,14.1-0.27,21.16,0.2c1.66,0.11,4.24,2.55,4.5,4.21
		c0.65,4.16,0.22,8.49,0.22,12.75C1492.56,575.02,1492.12,575.18,1491.69,575.34z"/>
	<path class="st0" d="M1523.27,557.36c4.34,0.39,9.54-0.59,12.84,1.47c5.77,3.6,1.79,10.3,3.09,16.17c-4.52,0-8.47,0.25-12.36-0.13
		c-1.51-0.15-3.67-1.42-4.11-2.68c-0.44-1.27,0.43-3.62,1.52-4.68c2.43-2.37,5.35-4.22,9.04-7.02c-4.13-0.23-7.09-0.39-10.05-0.55
		C1523.25,559.09,1523.26,558.22,1523.27,557.36z M1535.36,571.69c0-2.85,0-5.48,0-8.92c-3.78,2.86-6.87,5.21-9.96,7.55
		c0.28,0.46,0.56,0.91,0.83,1.37C1529.25,571.69,1532.26,571.69,1535.36,571.69z"/>
	<path class="st0" d="M1429.88,564.98c-2.01,0.14-4.02,0.35-6.04,0.41c-2.13,0.07-4.26,0.02-6.44,0.02
		c-0.56,3.43-1.02,6.41-1.64,9.36c-0.03,0.16-1.47,0.02-2.46,0.02c0-7.1,0-14.03,0-20.93c6.9-1.85,15.16-1.09,16.83,2.1
		c-4.51,0-8.71,0-13.12,0c0,2.24,0,3.86,0,6.65c4.29,0,8.65,0,13,0C1429.96,563.39,1429.92,564.19,1429.88,564.98z"/>
	<path class="st0" d="M1450.15,566.11c0.03,7.02-2.31,9.44-9.08,9.4c-6.58-0.04-8.98-2.45-9.03-9.06c-0.04-6.83,2.5-9.43,9.2-9.41
		C1447.81,557.07,1450.12,559.43,1450.15,566.11z M1446.85,566.37c0.43-4.28-0.93-6.49-5.72-6.5c-4.64-0.01-5.51,2.26-5.52,6.14
		c-0.01,3.92,0.54,6.78,5.51,6.76C1445.75,572.74,1447.38,570.61,1446.85,566.37z"/>
	<path class="st0" d="M1512.82,574.72c-1.36,0.15-2.16,0.3-2.96,0.33c-13.03,0.44-15.17-1.87-13.54-14.82
		c0.12-0.91,1.03-1.73,1.57-2.59c0.64,0.92,1.54,1.76,1.86,2.79c0.32,1.06,0.08,2.3,0.08,3.47c0,8.77,0,8.77,9.53,7.71
		c0-3.64-0.13-7.4,0.09-11.14c0.06-0.97,1.19-1.87,1.83-2.8c0.52,0.88,1.45,1.75,1.48,2.64
		C1512.9,564.92,1512.82,569.56,1512.82,574.72z"/>
	<path class="st0" d="M1552.36,556.36c-2.1-0.28-3.71-0.49-5.31-0.7c-0.09-0.55-0.19-1.11-0.28-1.66c1.95-0.31,4.07-1.23,5.78-0.72
		c1.42,0.41,3.2,2.43,3.32,3.87c0.42,4.76,0.16,9.59,0.16,14.22c2.36,0.68,4.26,1.23,6.15,1.77c-0.11,0.48-0.22,0.96-0.34,1.45
		c-5.14,0-10.28,0-15.42,0c-0.14-0.43-0.29-0.86-0.43-1.29c1.95-0.61,3.91-1.22,6.38-1.99
		C1552.36,566.75,1552.36,561.73,1552.36,556.36z"/>
	<path class="st0" d="M1516.3,574.63c0-7.05,0-14.09,0-21.16c3.24,0.32,3.38,0.33,3.18,9.11c-0.09,4.17,1.07,8.81-0.89,12.59
		C1517.83,574.99,1517.06,574.81,1516.3,574.63z"/>
	<path class="st0" d="M1464.08,559.01c-7.85,2.86-7.79,2.86-8.09,11.98c-0.04,1.35-0.99,2.67-1.52,4c-0.52-1.34-1.34-2.64-1.51-4.02
		c-0.26-2.12-0.1-4.3-0.06-6.45C1453.04,557.92,1457.32,555.61,1464.08,559.01z"/>
	<path class="st0" d="M1528.48,622.38c0-7.01,0-13.41,0-20.24c11.43,0,22.69-0.31,33.92,0.14c4.9,0.2,6.72,3.89,6.62,10.52
		c-0.09,5.76-2.1,8.53-6.94,9.27c-1.8,0.28-3.64,0.29-5.47,0.32c-2.47,0.05-4.94,0.01-7.77,0.01c0-4.55,0-8.61,0-12.97
		c1.55-0.12,2.98-0.24,5.06-0.41c0,2.98,0,5.69,0,8.3c8.47,1.33,9.51,0.42,9.29-6.55c-0.09-3.01-1.36-4.28-4.17-4.29
		c-7.49-0.04-14.97-0.13-22.46,0.04c-1.03,0.02-2.04,1.34-3.05,2.06c0.21,0.45,0.42,0.9,0.63,1.35c3.59,0,7.19,0,10.76,0
		c1.16,3.13,0.45,4.5-2.63,4.37c-1.99-0.08-4.02-0.18-5.98,0.1c-0.85,0.12-1.58,1.16-2.36,1.78c0.79,0.58,1.54,1.6,2.37,1.66
		c2.8,0.21,5.63,0.08,10.36,0.08c-1.74,2.17-2.59,4.22-3.58,4.29C1538.33,622.57,1533.54,622.38,1528.48,622.38z"/>
	<path class="st0" d="M1545.24,645.04c0.97,3.19,0.81,4.76-2.76,4.9c-9.28,0.36-13.15-2.7-13.01-10.78
		c0.11-6.76,2.83-9.78,9.68-9.99c7.81-0.24,15.63,0.04,23.44-0.14c3.3-0.08,4.21,1.17,3.16,4.62c-2.04,0.15-4.27,0.32-7.01,0.53
		c0,5.09,0,10.01,0,15.32c-2.04,0.16-3.59,0.27-5.55,0.42c0-5.3,0-10.24,0-15.91c-5.25,0-10.21-0.41-15.02,0.28
		c-1.26,0.18-2.82,3.79-2.77,5.8c0.04,1.68,1.89,3.98,3.54,4.77C1540.68,645.68,1543.11,645.04,1545.24,645.04z"/>
	<path class="st0" d="M1498.69,602.21c2.05,0,3.46,0,5.46,0c0,4.73-0.08,9.34,0.03,13.94c0.07,3.19-0.96,6.29-4.17,6.27
		c-2.45-0.02-5.7-1.73-7.14-3.74c-2.31-3.21-3.41-7.29-5.92-10.8c0,4.55,0,9.11,0,14.12c-1.96,0.14-3.5,0.24-5.73,0.4
		c0-5.51-0.37-10.64,0.2-15.67c0.2-1.76,2.68-4.6,4.12-4.6c2.37,0,5.65,1.29,6.93,3.15c2.38,3.45,3.6,7.7,6.23,11.55
		C1498.69,612.03,1498.69,607.23,1498.69,602.21z"/>
	<path class="st0" d="M1484.07,650.18c0-7.48,0-14.03,0-21.13c6.5,0.7,13.95-2.54,18.17,3.81c2.03,3.06,2.19,9.24,0.45,12.55
		C1498.79,652.8,1490.9,648.82,1484.07,650.18z M1489.39,645.83c3.11-0.77,6.98-0.63,7.92-2.22c1.27-2.16,1.25-6.22-0.05-8.35
		c-0.94-1.55-4.84-1.3-7.87-1.94C1489.39,637.66,1489.39,641.05,1489.39,645.83z"/>
	<path class="st0" d="M1451.16,641.53c2.09,2.85,3.81,5.2,5.6,7.64c-5.1,1.02-10.87-2.78-11.83-7.56c-0.51-2.58,0.69-3.47,3.2-3.83
		c1.37-0.19,2.56-1.64,3.83-2.52c-1.37-0.57-2.7-1.37-4.13-1.65c-1.25-0.24-2.61,0.1-4.48,0.22c0,5.21,0,10.28,0,15.66
		c-1.95,0.16-3.35,0.27-5.17,0.42c0-6.88,0-13.46,0-20.82c3.63,0,7.38-0.12,11.12,0.03c3.49,0.14,7.29,0.12,8.09,4.81
		C1458.14,638.33,1456.02,640.84,1451.16,641.53z"/>
	<path class="st0" d="M1469.72,650.02c-7.51-0.05-10.68-3.18-10.68-10.54c0-7.51,3.25-10.54,11.22-10.49
		c7.51,0.05,10.7,3.19,10.69,10.53C1480.95,647.01,1477.68,650.07,1469.72,650.02z M1474.92,639.43c0.67-3.56-0.34-5.96-4.75-6.05
		c-4.28-0.09-5.34,2.06-5.27,5.93c0.06,3.57,0.41,6.28,4.92,6.29C1474.02,645.62,1475.55,643.62,1474.92,639.43z"/>
	<path class="st0" d="M1521.12,629.36c2.15,0,3.72,0,5.71,0c0,4.87,0.21,9.49-0.06,14.09c-0.24,4-2.56,6.39-6.74,6.54
		c-2.16,0.08-4.32,0.12-6.47-0.02c-4.08-0.26-6.47-2.45-6.58-6.62c-0.12-4.47-0.03-8.95-0.03-13.84c1.69,0,3.2,0,5.28,0
		c0,4.01,0.06,7.96-0.02,11.9c-0.07,3.22,1.5,4.39,4.59,4.41c3.15,0.02,4.53-1.16,4.37-4.43
		C1520.98,637.45,1521.12,633.5,1521.12,629.36z"/>
	<path class="st0" d="M1422.17,642.92c-0.14,2.46-0.25,4.39-0.37,6.63c-1.75,0-3.29,0-5.15,0c0-6.72,0-13.27,0-20.26
		c4.31,0,8.4-0.23,12.46,0.06c4.42,0.32,6.14,2.96,5.96,7.45c-0.18,4.36-2.69,5.76-6.34,6.08
		C1426.64,643.07,1424.51,642.92,1422.17,642.92z M1422.23,639.35c2.49-0.6,4.66-0.94,6.65-1.74c0.38-0.15,0.38-2.9,0-3.05
		c-1.99-0.79-4.15-1.12-6.65-1.7C1422.23,635.33,1422.23,636.9,1422.23,639.35z"/>
	<path class="st0" d="M1461.09,622.4c0-7.07,0-13.46,0-20.16c5.59,0,10.97,0,16.36,0c0.33,0.42,0.67,0.84,1,1.27
		c-1.18,0.96-2.24,2.42-3.58,2.77c-1.87,0.48-4-0.1-5.93,0.24c-1.13,0.2-2.11,1.29-3.16,1.99c0.2,0.43,0.39,0.86,0.59,1.29
		c3.6,0,7.2,0,10.81,0c1.48,3.15,0.95,4.65-2.48,4.52c-1.99-0.08-4.03-0.25-5.96,0.11c-1.07,0.2-1.95,1.41-2.91,2.16
		c0.23,0.42,0.45,0.85,0.68,1.27c3.6,0,7.21,0,10.79,0c1.39,3.29,0.6,4.65-2.71,4.57C1470.28,622.32,1465.96,622.4,1461.09,622.4z"
		/>
	<path class="st0" d="M1525.53,602.01c-2.34,7.88-9.25,1.93-12.76,5.93c2.73,0.97,5.24,1.89,7.78,2.75
		c3.13,1.06,5.35,2.81,4.79,6.51c-0.55,3.63-3.18,4.84-6.42,5.03c-2.65,0.16-5.36,0.41-7.95,0.04c-1.27-0.18-2.35-1.7-3.52-2.62
		c0.25-0.59,0.51-1.19,0.76-1.78c3.84,0,7.68,0,11.53,0c0.12-0.42,0.23-0.85,0.35-1.27c-0.76-0.57-1.45-1.34-2.31-1.68
		c-2.16-0.84-4.84-0.96-6.48-2.35c-1.75-1.48-3.6-4.18-3.43-6.18c0.14-1.59,3.08-3.82,5.07-4.19
		C1516.59,601.53,1520.48,602.01,1525.53,602.01z"/>
	<path class="st0" d="M1457.62,601.95c1.44,5.33-1.97,4.45-4.44,4.43c-3.97-0.02-7.28,0.27-7.15,5.7c0.1,4.24,1.75,6.15,5.98,5.88
		c1.8-0.11,3.61-0.02,5.42-0.02c1.42,3.14,0.74,4.62-2.63,4.47c-1.49-0.07-2.98,0.03-4.47-0.05c-7.39-0.39-10.21-3.36-10.06-10.55
		c0.14-6.78,3.18-9.71,10.27-9.85C1452.83,601.91,1455.12,601.95,1457.62,601.95z"/>
	<path class="st0" d="M1428.91,617.82c-0.22,5.13-4.25,5.99-15.41,3.98c0-6.32,0-12.71,0-19.52c1.56-0.12,3.12-0.24,5.27-0.4
		c0,5.36,0,10.41,0,15.95C1422.38,617.82,1425.44,617.82,1428.91,617.82z"/>
	<path class="st0" d="M1432.2,602.21c1.8,0,3.21,0,4.92,0c0,6.62,0,13,0,19.76c-1.63,0-3.14,0-4.92,0
		C1432.2,615.44,1432.2,609.05,1432.2,602.21z"/>
</g>
</svg>
