<?xml version="1.0" encoding="utf-8"?>
<!-- Generator: Adobe Illustrator 25.0.0, SVG Export Plug-In . SVG Version: 6.00 Build 0)  -->
<svg version="1.1" id="Livello_1" xmlns="http://www.w3.org/2000/svg" xmlns:xlink="http://www.w3.org/1999/xlink" x="0px" y="0px"
	 viewBox="0 0 423.82 259.96" style="enable-background:new 0 0 423.82 259.96;" xml:space="preserve">
<style type="text/css">
	.st0{fill:#FFFFFF;}
</style>
<g>
	<path class="st0" d="M138.1,73.68C138.25,32.78,171.26-0.01,211.83,0c41.75,0.01,73.92,34.29,73.73,74.17
		c-0.18,39.04-31.63,73.55-73.97,73.43C170.34,147.48,138.1,114.05,138.1,73.68z M229.82,34.19c-0.5,0.78-0.91,1.42-1.32,2.07
		c-6.79,10.73-13.58,21.45-20.38,32.18c-0.36,0.58-0.75,1.14-1.09,1.73c-0.37,0.64-0.88,1.02-1.65,0.98c-0.43-0.02-0.85,0-1.28,0
		c-7,0-13.99,0-20.99,0c-0.51,0-1.02,0-1.54-0.02c-0.51-0.03-0.75-0.43-0.49-0.85c1.32-2.09,2.61-4.19,3.98-6.25
		c1.86-2.79,0.92-2.25,4.23-2.28c3.92-0.03,7.85-0.06,11.77,0.02c1.11,0.02,1.72-0.39,2.26-1.27c1.33-2.18,2.72-4.33,4.07-6.5
		c0.21-0.33,0.58-0.65,0.36-1.14c-0.36-0.33-0.8-0.17-1.2-0.17c-2.64-0.02-5.29-0.01-7.93-0.01c-7.94,0-15.87,0.03-23.8-0.03
		c-1.4-0.01-2.38,0.27-3.12,1.6c-1.2,2.16-2.62,4.19-3.93,6.28c-0.2,0.32-0.59,0.65-0.17,1.27c2.42,0,4.94,0,7.7,0
		c-0.51,1.32-1.24,2.25-1.85,3.24c-0.62,1.02-1.26,2.02-1.9,3.03c-0.59,0.94-1.19,1.87-1.79,2.8c-0.64,1.01-1.27,2.02-1.91,3.03
		c-0.64,1.01-1.29,2.01-1.9,3.03c-0.59,0.99-1.39,1.89-1.83,3.24c0.76,0,1.33,0,1.91,0c14.59,0,29.18,0,43.77,0
		c0.43,0,0.85-0.01,1.28,0c0.57,0.02,0.94-0.24,1.21-0.75c0.28-0.53,0.63-1.01,0.94-1.52c5.05-8.09,10.1-16.19,15.16-24.28
		c0.45-0.72,0.91-1.43,1.38-2.16c1.37,1.44,5.55,8.12,6.39,10.24c-1.27,0.27-2.54,0.17-3.78,0.11c-1.1-0.05-1.74,0.38-2.27,1.27
		c-1.18,1.97-2.45,3.89-3.65,5.86c-0.34,0.55-0.92,1.01-0.89,1.74c0.44,0.44,0.97,0.27,1.44,0.27c4.52,0.01,9.04,0.05,13.57-0.02
		c1.23-0.02,2.04,0.3,2.69,1.41c1.37,2.36,2.89,4.63,4.31,6.95c0.4,0.65,0.89,0.91,1.66,0.9c2.22-0.05,4.44-0.01,6.65-0.02
		c0.91,0,1.81-0.04,2.77-0.06C257.79,78.11,231.74,36.64,229.82,34.19z M178.71,43.3c1.29,0,2.14,0,2.99,0c9.38,0,18.76,0,28.14,0
		c1.62,0,3.24-0.06,4.86,0.02c1.13,0.05,1.9-0.25,2.5-1.29c1.28-2.21,2.7-4.34,4.04-6.51c0.2-0.33,0.58-0.66,0.19-1.26
		c-0.34,0-0.75,0-1.16,0c-11.34,0-22.68,0-34.02,0c-0.34,0-0.68,0-1.02,0c-0.55,0-0.98,0.2-1.28,0.68
		C182.28,37.61,180.62,40.26,178.71,43.3z M225.48,96.84c0.48-0.4,0.95-0.75,1.38-1.15c0.63-0.6,1.13-1.33,1.17-2.21
		c0.06-1.62,0.13-3.25,0-4.86c-0.15-1.83-1.74-3.35-3.57-3.41c-2.81-0.09-5.63-0.03-8.44-0.03c-0.5,0-0.77,0.26-0.78,0.77
		c0,0.17-0.01,0.34-0.01,0.51c0,5.72-0.01,11.43,0,17.15c0,1.14,0.06,1.19,1.12,1.19c0.67,0,1.36,0.16,1.98-0.18
		c0.35-0.47,0.25-1,0.25-1.5c0.01-1.54-0.01-3.07,0.01-4.61c0.02-1.39,0.09-1.43,1.45-1.45c0.43-0.01,0.85,0,1.28,0
		c0.58,0,0.92,0.26,1.14,0.81c0.82,2.06,1.69,4.09,2.5,6.15c0.18,0.46,0.45,0.73,0.92,0.72c0.89-0.02,1.81,0.19,2.82-0.23
		C227.59,101.9,226.55,99.4,225.48,96.84z M169.88,85.17C169.88,85.18,169.88,85.18,169.88,85.17c-0.94,0.01-1.88,0.05-2.81,0
		c-1.73-0.09-3.69,1.98-3.65,3.63c0.03,1.28-0.06,2.56,0.03,3.83c0.13,1.93,1.45,3.28,3.41,3.51c0.93,0.11,1.87,0.11,2.81,0.09
		c3.99-0.11,3.6,0.63,3.54,4.06c0,0.08-0.01,0.17-0.04,0.25c-0.17,0.62-0.5,1.12-1.19,1.14c-1.28,0.04-2.55,0.03-3.83,0.04
		c-0.68,0-1.12-0.4-1.36-0.98c-0.16-0.39-0.19-0.83-0.32-1.23c-0.11-0.35-0.38-0.57-0.75-0.58c-0.59-0.02-1.19-0.04-1.79,0
		c-0.23,0.02-0.46,0.22-0.47,0.52c-0.02,0.51-0.06,1.02-0.03,1.53c0.12,2.35,1.49,3.78,3.85,3.88c1.79,0.07,3.58-0.02,5.37,0.02
		c1.88,0.04,3.75-1.57,3.85-3.69c0.05-1.19,0.04-2.39,0.05-3.58c0.01-2.49-1.47-4.39-4.5-4.48c-0.85-0.03-1.71-0.02-2.56-0.01
		c-2.55,0.04-2.96-0.28-2.82-3.24c0-0.08,0.02-0.17,0.03-0.25c0.17-0.9,0.61-1.36,1.53-1.43c0.85-0.07,1.7-0.02,2.55-0.05
		c1.36-0.06,2.33,0.36,2.54,1.87c0.05,0.32,0.2,0.69,0.56,0.79c0.75,0.19,1.52,0.16,2.27,0c0.12-0.03,0.27-0.24,0.28-0.38
		c0.04-0.51,0.06-1.02,0.01-1.53c-0.18-2.23-1.56-3.59-3.76-3.71C171.76,85.13,170.82,85.17,169.88,85.17z M259.78,90.64
		c0-0.62,0.04-1.13-0.01-1.64c-0.19-2.34-1.62-3.75-3.94-3.82c-1.7-0.05-3.41-0.05-5.11,0c-2.11,0.07-3.5,1.26-3.91,3.32
		c-0.29,1.43-0.24,2.88-0.03,4.32c0.28,1.86,1.87,3.31,3.64,3.36c1.02,0.03,2.04,0.05,3.06,0.06c2.88,0.03,3.25,0.41,3.12,3.25
		c-0.02,0.42-0.07,0.85-0.18,1.25c-0.14,0.52-0.48,0.93-1.06,0.95c-1.28,0.04-2.55,0.05-3.83,0.04c-0.76-0.01-1.26-0.42-1.47-1.17
		c-0.09-0.33-0.18-0.65-0.29-0.98c-0.15-0.45-0.46-0.65-0.95-0.69c-2.05-0.16-2.42,0.22-2.14,2.26c0.33,2.39,1.64,3.59,4.1,3.66
		c1.7,0.05,3.41-0.06,5.11,0.01c1.9,0.08,3.94-1.91,3.91-3.94c-0.02-1.02,0.03-2.04,0-3.07c-0.07-2.95-1.59-4.51-4.58-4.68
		c-0.68-0.04-1.36,0-2.04-0.01c-0.6-0.01-1.19,0-1.78-0.07c-0.86-0.1-1.27-0.48-1.32-1.28c-0.05-0.76-0.04-1.53,0.02-2.29
		c0.06-0.65,0.45-1.12,1.12-1.22c1.35-0.19,2.71-0.19,4.07,0.01c0.44,0.07,0.78,0.33,0.95,0.76c0.16,0.39,0.34,0.79,0.43,1.2
		c0.11,0.52,0.46,0.68,0.91,0.67C258.25,90.87,258.93,91.06,259.78,90.64z M210.73,94.95c0-1.79,0-3.58,0-5.37
		c0-0.17,0-0.34-0.01-0.51c-0.16-2.32-1.6-3.77-3.91-3.84c-1.7-0.06-3.41-0.06-5.11,0c-2.39,0.09-3.97,1.61-4.03,4.05
		c-0.09,3.83-0.1,7.67,0,11.5c0.06,2.39,1.7,3.92,4.09,4.02c1.53,0.06,3.07-0.07,4.6,0.04c2.39,0.17,4.56-1.88,4.4-4.52
		C210.64,98.53,210.73,96.74,210.73,94.95z M180.87,95.03C180.87,95.03,180.87,95.03,180.87,95.03c0,2.47-0.01,4.95,0,7.42
		c0.01,2.67-0.32,2.38,2.52,2.35c0.52-0.01,0.75-0.3,0.75-0.8c0.01-1.71,0-3.41,0.02-5.12c0.02-1.23,0.12-1.34,1.27-1.36
		c1.45-0.02,2.91,0.08,4.35-0.04c2.79-0.23,4.1-2.12,4.09-4.07c-0.01-1.45,0.06-2.9-0.02-4.35c-0.13-2.33-1.61-3.82-3.89-3.88
		c-2.73-0.07-5.46-0.01-8.18-0.03c-0.63,0-0.92,0.27-0.92,0.91C180.87,89.06,180.87,92.05,180.87,95.03z M230.64,85.41
		c-0.29,0.64-0.13,1.32-0.13,1.98c0,0.47,0.25,0.8,0.78,0.8c1.02,0.01,2.05,0,3.07,0.03c0.96,0.03,1.12,0.22,1.16,1.24
		c0.02,0.51,0.01,1.02,0.01,1.53c0,3.92,0,7.84,0,11.76c0,0.51-0.02,1.03,0.06,1.53c0.03,0.18,0.29,0.39,0.49,0.47
		c0.23,0.09,0.5,0.05,0.76,0.05c2.05,0,2.01,0.17,2.01-1.86c-0.01-4.01-0.02-8.01,0-12.02c0.01-2.97-0.39-2.71,2.73-2.72
		c2.49-0.01,2.45,0.29,2.32-2.56c-0.01-0.13-0.19-0.25-0.29-0.37C239.74,85.03,232.59,85.1,230.64,85.41z M261.21,85.88
		c-0.08,0.01-0.19-0.02-0.24,0.02c-0.32,0.3,0.09,0.57,0.04,0.87c-0.02,0.13,0.02,0.27,0.03,0.41c0.03-0.16,0.1-0.32,0.09-0.47
		C261.13,86.42,261.58,86.18,261.21,85.88z"/>
	<path class="st0" d="M169.86,258.13c0.06-0.94,0.67-1.69,1.09-2.5c10.74-20.61,21.49-41.21,32.24-61.81
		c4.41-8.45,8.81-16.91,13.22-25.36c0.24-0.45,0.56-0.87,0.72-1.35c0.27-0.81,0.84-0.99,1.59-0.94c0.34,0.03,0.68,0,1.02,0
		c8.1,0,16.21,0,24.31,0c0.51,0,1.02,0,1.53,0.03c0.49,0.02,0.74,0.3,0.82,0.79c0.35,2.27,0.71,4.55,1.07,6.82
		c0.93,5.8,1.85,11.61,2.79,17.41c0.95,5.89,1.9,11.77,2.85,17.66c0.95,5.89,1.91,11.77,2.86,17.66c0.92,5.72,1.83,11.44,2.75,17.16
		c0.62,3.87,1.26,7.73,1.88,11.6c0.15,0.92,0.24,1.86,0.34,2.73c-0.16,0.11-0.22,0.16-0.29,0.2c-0.07,0.04-0.15,0.11-0.23,0.11
		c-7.76,0.01-15.53,0.02-23.29,0.03c-0.42,0-0.84-0.04-1.34-0.07c-0.36-1-0.48-2-0.6-3c-0.49-3.97-1.01-7.95-1.53-11.92
		c-0.12-0.92-0.24-1.03-1.07-1.07c-0.51-0.02-1.02-0.01-1.54-0.01c-8.96,0-17.91,0-26.87,0c-0.43,0-0.85,0.03-1.28,0
		c-0.8-0.05-1.24,0.35-1.55,1.05c-0.63,1.39-1.33,2.76-1.99,4.14c-1.55,3.22-3.12,6.43-4.61,9.68c-0.42,0.92-0.98,1.21-1.95,1.21
		c-7.34-0.03-14.67-0.02-22.01-0.02C170.51,258.37,170.16,258.45,169.86,258.13z M211.49,222.79c0.23,0.05,0.46,0.14,0.68,0.14
		c5.88,0.01,11.76,0.01,17.64,0.01c0.17,0,0.34-0.01,0.51-0.02c0.52-0.02,0.78-0.32,0.72-0.81c-0.17-1.52-0.37-3.04-0.56-4.56
		c-1.01-7.85-2.02-15.7-3.03-23.55c-0.09-0.68-0.2-1.35-0.34-2.02c-0.12-0.59,0.07-1.28-0.42-1.88
		C225.33,192.16,211.99,220.84,211.49,222.79z"/>
	<path class="st0" d="M378.23,219.74c0.83-4.93,1.66-9.89,2.5-14.84c0.22-1.28,0.36-1.42,1.63-1.44c1.54-0.02,3.07,0.03,4.61,0.01
		c2.23-0.04,4.4-0.39,6.43-1.39c3.76-1.85,5.78-4.91,6.23-9.02c0.12-1.09,0.12-2.22,0.01-3.32c-0.28-2.71-1.75-4.65-4.3-5.51
		c-3.56-1.2-7.07-0.75-10.38,1c-1.63,0.87-2.72,2.29-3.48,3.97c-0.25,0.54-0.48,1.09-0.68,1.65c-0.33,0.94-0.14,2.29-1.05,2.73
		c-0.84,0.41-2,0.18-3.02,0.18c-5.46,0.01-10.92,0.01-16.38,0c-0.6,0-1.2,0.01-1.79-0.01c-0.81-0.04-1.02-0.3-0.87-1.16
		c0.22-1.26,0.45-2.52,0.73-3.76c2.3-10.23,8.49-17.28,17.92-21.54c5.17-2.33,10.64-3.53,16.32-3.67c3.41-0.09,6.82-0.11,10.2,0.52
		c4.05,0.75,7.92,1.97,11.42,4.19c6.05,3.83,9.31,9.3,9.53,16.53c0.14,4.68-0.61,9.17-2.67,13.4c-2.61,5.37-6.7,9.16-12.2,11.47
		c-0.62,0.26-1.27,0.47-1.89,0.74c-0.12,0.05-0.23,0.26-0.25,0.41c-0.01,0.11,0.13,0.29,0.24,0.33c0.47,0.18,0.96,0.33,1.44,0.49
		c3.33,1.15,6,3.17,8.06,6.01c1.84,2.54,2.95,5.35,3.16,8.51c0.5,7.6-1.67,14.31-6.67,20.07c-4,4.6-8.99,7.78-14.61,10.03
		c-8.32,3.34-16.93,4.29-25.82,3.24c-3.4-0.4-6.72-1.03-9.94-2.18c-2.26-0.81-4.38-1.88-6.3-3.31c-4.2-3.14-6.5-7.34-7-12.55
		c-0.34-3.51-0.03-6.98,0.63-10.43c0.12-0.61,0.47-0.87,1.06-0.87c0.26,0,0.51-0.01,0.77-0.01c6.66,0,13.31,0,19.97,0
		c0.51,0,1.03-0.07,1.45,0.22c-0.11,1.21-0.24,2.39-0.32,3.58c-0.15,2.52,1.1,4.23,3.24,5.33c2.26,1.17,4.71,1.4,7.21,1.31
		c6.04-0.22,11.7-5.76,10.66-13.25c-0.27-1.96-1.3-3.5-2.84-4.68c-1.65-1.27-3.55-1.97-5.61-2.28c-1.78-0.27-3.56-0.36-5.36-0.34
		C379.55,220.11,378.84,220.29,378.23,219.74z"/>
	<path class="st0" d="M339.03,258.29c-21.25,0-42.56,0-63.95,0c-0.2-0.83,0.02-1.57,0.14-2.29c0.53-3.19,1.17-6.37,1.66-9.57
		c0.24-1.59,0.91-2.79,2.1-3.9c5.24-4.89,10.41-9.86,15.6-14.81c5.37-5.12,10.75-10.24,16.11-15.39c3.02-2.9,5.98-5.85,8.63-9.1
		c1.78-2.18,3.43-4.46,4.68-7c0.72-1.46,1.26-2.97,1.57-4.57c0.95-4.97-1.74-8.65-6.8-9.04c-4.61-0.36-8.09,1.56-10,5.59
		c-0.99,2.1-1.56,4.31-1.91,6.6c-0.15,1.01-0.31,1.17-1.28,1.19c-1.28,0.03-2.56,0.01-3.84,0.01c-5.21,0-10.41,0-15.62,0
		c-0.68,0-1.36-0.01-2.05-0.04c-0.36-0.02-0.68-0.18-0.62-0.61c0.91-6.57,2.55-12.87,6.73-18.23c4.18-5.35,9.63-8.86,16.02-10.9
		c6.72-2.15,13.62-2.91,20.68-2.23c3.93,0.38,7.75,1.13,11.35,2.74c6.51,2.91,10.7,7.74,11.91,14.9c0.86,5.08,0.29,10.01-1.56,14.82
		c-1.89,4.92-4.77,9.22-8.11,13.24c-4.43,5.34-9.57,9.96-14.75,14.54c-4.6,4.07-9.2,8.15-13.8,12.22c-0.32,0.28-0.63,0.58-0.91,0.89
		c-0.23,0.25-0.01,0.56,0.17,0.58c0.76,0.08,1.53,0.11,2.29,0.11c8.79,0.01,17.58,0,26.37,0.01c0.68,0,1.37-0.01,2.05,0.03
		c0.63,0.03,0.86,0.36,0.74,1.04c-0.9,5.12-1.79,10.24-2.74,15.35C339.68,255.72,339.75,257.05,339.03,258.29z"/>
	<path class="st0" d="M127.75,166.22c22.6,0,45.04,0,67.48,0.01c0.33,0,0.65,0.11,0.98,0.17c0,0.5,0.06,0.93-0.01,1.34
		c-1.01,5.88-2.03,11.76-3.05,17.64c-0.19,1.08-0.34,1.19-1.55,1.23c-0.6,0.02-1.2,0-1.79,0c-12.63,0-25.27,0-37.9,0
		c-2.11,0-2.14,0.01-2.53,2.12c-0.76,4.19-1.49,8.39-2.22,12.59c-0.07,0.42-0.09,0.85-0.11,1.27c-0.02,0.41,0.25,0.61,0.63,0.62
		c0.68,0.03,1.37,0.03,2.05,0.03c9.82,0,19.63,0,29.45,0c2.47,0,2.48,0.04,2.06,2.39c-0.98,5.54-1.94,11.08-2.9,16.62
		c-0.21,1.22-0.25,1.26-1.44,1.29c-0.6,0.02-1.2,0-1.79,0c-9.73,0-19.46,0-29.19,0c-0.84,0-1.69,0-2.57,0
		c-0.72,1.97-0.86,3.92-1.21,5.82c-1.64,9.06-3.2,18.13-4.79,27.19c-0.03,0.17-0.04,0.34-0.07,0.51c-0.24,1.2-0.32,1.3-1.48,1.3
		c-7.77,0.01-15.54,0-23.3-0.01c-0.24,0-0.49-0.1-0.73-0.15c-0.25-0.71-0.05-1.38,0.07-2.02
		C117.17,226.26,122.37,196.3,127.75,166.22z"/>
	<path class="st0" d="M31.47,223.84c-0.89,4.97-1.79,9.99-2.67,15.02c-1.06,6.04-2.11,12.08-3.17,18.12
		c-0.21,1.21-0.38,1.39-1.41,1.39c-7.93,0-15.86-0.02-23.8-0.04c-0.08,0-0.15-0.07-0.41-0.19c-0.06-0.91,0.13-1.88,0.3-2.85
		c1.12-6.29,2.25-12.57,3.36-18.86c1.31-7.38,2.62-14.76,3.92-22.14c1.11-6.29,2.19-12.59,3.3-18.88
		c1.11-6.29,2.24-12.58,3.36-18.86c0.6-3.35,1.18-6.71,1.75-9.97c0.18-0.12,0.24-0.17,0.32-0.2c0.07-0.04,0.15-0.1,0.23-0.1
		c22.27-0.02,44.53-0.03,66.8-0.04c0.33,0,0.67,0.04,0.95,0.06c0.52,0.59,0.28,1.19,0.19,1.74c-0.97,5.62-1.96,11.24-2.94,16.86
		c-0.03,0.17-0.03,0.34-0.06,0.51c-0.19,0.99-0.37,1.17-1.31,1.2c-0.68,0.02-1.36,0.01-2.05,0.01c-12.46,0-24.91,0-37.37,0.01
		c-0.84,0-1.7-0.16-2.67,0.21c-0.53,2.95-1.07,5.94-1.6,8.94c-0.37,2.1-0.74,4.19-1.06,6.3c-0.15,1.01,0.01,1.14,1.09,1.16
		c1.02,0.02,2.05,0.01,3.07,0.01c9.13,0,18.26,0,27.38,0c0.68,0,1.36,0,2.05,0.03c0.5,0.02,0.77,0.3,0.75,0.81
		c-0.01,0.34-0.04,0.68-0.1,1.02c-1,5.79-2.01,11.58-3.02,17.37c-0.16,0.9-0.29,1.04-1.11,1.08c-0.68,0.03-1.36,0.01-2.05,0.01
		c-9.81,0-19.62-0.01-29.43,0.01C33.22,223.56,32.35,223.35,31.47,223.84z"/>
	<path class="st0" d="M77.41,258.12c-0.09-1.81,0.49-3.61,0.79-5.42c1.08-6.38,2.23-12.75,3.37-19.13
		c1.12-6.29,2.24-12.58,3.35-18.87c1.1-6.21,2.19-12.42,3.28-18.62c1.13-6.37,2.26-12.75,3.39-19.12c0.58-3.27,1.16-6.54,1.72-9.82
		c0.1-0.6,0.39-0.9,1-0.91c0.34,0,0.68-0.01,1.02-0.01c7.25,0,14.51,0,21.76,0.01c0.58,0,1.2-0.14,1.83,0.33
		c-0.21,1.36-0.41,2.79-0.66,4.21c-1.49,8.47-2.99,16.94-4.5,25.42c-1.28,7.21-2.58,14.42-3.86,21.64
		c-1.1,6.21-2.18,12.42-3.27,18.63c-1.22,6.96-2.44,13.93-3.66,20.89c-0.15,0.83-0.35,0.99-1.18,1.04
		c-0.34,0.02-0.68,0.01-1.02,0.01c-7.25,0-14.51,0-21.76-0.01C78.52,258.37,77.99,258.48,77.41,258.12z"/>
	<path class="st0" d="M218.58,90.89c0-0.6,0-1.19,0-1.79c0-0.48,0.17-0.85,0.71-0.85c1.36-0.01,2.72-0.01,4.08,0.03
		c0.68,0.02,1.08,0.47,1.2,1.12c0.21,1.1,0.19,2.2,0.02,3.3c-0.13,0.8-0.57,1.19-1.37,1.25c-0.51,0.04-1.02,0.03-1.53,0.02
		C218.1,93.91,218.63,94.5,218.58,90.89z"/>
	<path class="st0" d="M201.02,94.86c0-1.36-0.01-2.72,0.01-4.08c0.01-0.5,0.06-1.02,0.17-1.51c0.12-0.53,0.47-0.94,1.05-0.96
		c1.27-0.04,2.55-0.05,3.82-0.03c0.69,0.01,1.09,0.49,1.25,1.09c0.13,0.48,0.14,1.01,0.14,1.51c0.01,2.72,0.01,5.44,0,8.17
		c0,0.51,0,1.03-0.13,1.51c-0.17,0.59-0.53,1.1-1.23,1.11c-1.27,0.02-2.55,0.01-3.82-0.02c-0.58-0.02-0.92-0.43-1.05-0.96
		c-0.12-0.49-0.18-1-0.19-1.5C201.01,97.75,201.02,96.3,201.02,94.86z"/>
	<path class="st0" d="M184.15,91.37c0.04-3.58-0.44-3.12,3.07-3.16c0.51,0,1.02-0.02,1.53,0.01c1.24,0.08,1.73,0.5,1.81,1.66
		c0.07,0.93,0.06,1.87,0,2.8c-0.08,1.14-0.65,1.69-1.75,1.76c-0.51,0.03-1.02,0.02-1.53,0.01
		C183.78,94.41,184.18,94.98,184.15,91.37z"/>
</g>
</svg>
