<svg id="Livello_1" data-name="Livello 1" xmlns="http://www.w3.org/2000/svg" viewBox="0 0 979.2 698.66"><defs><style>.cls-1{fill:#fff;}.cls-2{fill:#1e3762;}.cls-3{fill:#fefefe;}.cls-4{fill:#f2f5f9;}.cls-5{fill:#f1f5f8;}.cls-6{fill:#f2f6f8;}.cls-7{fill:#f2f6f9;}.cls-8{fill:#f1f4f8;}.cls-9{fill:#f2f5f7;}.cls-10{fill:#f3f7f9;}.cls-11{fill:#273f65;}.cls-12{fill:#dc2322;}.cls-13{fill:#d71317;}.cls-14{fill:#d61417;}.cls-15{fill:#384d70;}.cls-16{fill:#374d6f;}.cls-17{fill:#32486d;}</style></defs><path class="cls-1" d="M938,570.77c2.44,1.52,4.59,1.51,6.67,1.7,11.53,1,17.53,8.46,15.18,19.7-3.53,16.82-7.4,33.57-11.39,50.28A26,26,0,0,1,923,662.05c-43.14-.61-86.29-.52-129.43,0-10,.11-17.07-8.11-16.2-18.45.92-11,4.36-21.4,6.35-32.13.18-1,.58-1.93.67-2.91,1-10.77,1.76-9.2,10.55-9.23,13.49-.05,27,.06,40.48-.06,4.09,0,5.75,1.18,4,5.29-.26.61-.28,1.31-.51,1.93-1.52,4-.5,5.48,4.09,5.42,17.66-.23,35.32-.15,53,0,3.11,0,4.82-.63,5.57-4,.79-3.62-1-4.59-3.77-5.74-14.21-6-28.36-12.11-42.54-18.14-2.15-.91-3.15-2.24-2.64-4.63,1.22-5.66,2.37-11.34,3.58-17,.43-2,1.84-2.93,3.72-3.6,17.36-6.16,34.64-12.53,52-18.54,4.25-1.47,5.15-4.76,6.16-8.22.55-1.92-.52-2.64-2.45-2.63-18.32,0-36.65.06-55,0-2.91,0-3.07,2.3-3.7,4-4.43,11.8-4.38,11.82-17.05,11.82q-18,0-36,0c-6.45,0-6.68-.18-5.28-6.4,2.72-12.06,4.93-24.26,9-36,3.37-9.72,12.11-18,24.74-17.89,26.15.16,52.31,0,78.46,0h48.41c15.39,0,22.26,8,19.24,23.26-2.65,13.44-6,26.75-9.2,40.08-2.86,11.87-11.83,16.93-22.65,19.9C943.94,568.87,940.83,568.63,938,570.77Z"/><path class="cls-1" d="M682.78,661.37H605.31c-6.78,0-7-.15-5.61-6.7,2.15-10.06,4.64-20,6.67-30.12.74-3.62,2.64-5.8,5.63-7.69,12.6-8,25.88-14.75,38.63-22.44,24.55-14.8,49.91-28.26,74-43.85a9.6,9.6,0,0,1,2.15-1.26c8.61-2.6,10.79-9.78,12.73-17.33.54-2.09-.41-2.43-1.69-2.68a23.87,23.87,0,0,0-4.48-.25c-15,0-30,.21-45-.14-4.66-.11-7,1.45-8.49,5.61-4.07,11.14-1.73,9.89-14.46,9.5-13.77-.41-27.52-.53-41.29-.55-2.65,0-3.45-.58-2.67-3.45,3.19-11.78,4.6-24,8.57-35.6a29.9,29.9,0,0,1,28.32-20c40.65.19,81.3,0,121.95.08,15.43,0,21.82,9.59,19.53,22.32-2.92,16.27-6.48,32.43-10.35,48.5-2.06,8.58-8.61,13.94-16.07,18.14L718,604.71a3.44,3.44,0,0,0-.86.49c-1.08,1.09-3.75,1.15-3.11,3.21.5,1.61,2.64.81,4,.79,17.64-.18,35.27-.49,52.91-.65,6.72-.06,7.19.61,5.72,7.25-3.08,13.89-6.37,27.73-9.28,41.65-.75,3.58-2.7,3.95-5.66,3.94q-39.48-.09-79,0Z"/><path class="cls-2" d="M479.28,415.92A80,80,0,0,0,505.82,442c25.25,15,51.08,18.37,77.61,3.24,4.78-2.72,3.16,1.41,3.16,3.06q.12,65.45.07,130.89c0,15.33-.22,30.65.05,46,.28,15.47-7.05,26.25-19.82,33.94-9.73,5.86-20.56,8.58-31.63,10.29-15,2.31-29.36,6-41.72,15.34a57.5,57.5,0,0,0-11.89,12c-1.41,1.94-2.26,3-4.22.3-12.38-16.84-30.11-24-50-27-12.06-1.86-23.94-4.3-34.72-10.42C379.37,652,372,641.13,372,625.22c.19-59,.08-117.91.1-176.86,0-2.31-1-5.65,3.63-3.09,29.89,16.46,57.7,10.75,84.1-8.27C467.6,431.43,473.68,424.17,479.28,415.92Z"/><path class="cls-1" d="M49.14,567.85c-4,12.14-7.67,23.51-11.47,34.85-.85,2.55-1.15,5.38-5.29,5.4s-4.36-2.74-5.22-5.35c-3.73-11.34-7.44-22.68-11.34-34.56-1.93,1.91-1.32,3.78-1.33,5.4-.05,15.82-.15,31.64.06,47.45,0,3.81-1.13,4.79-4.82,4.74C.09,625.65.1,625.82.1,616c0-28.47.08-57-.1-85.42,0-4.12,1.05-5.84,5.26-5.21a16,16,0,0,0,4.48,0c3.31-.44,4.6,1.18,5.59,4.16,5,15.14,10.33,30.21,15.56,45.3a18.74,18.74,0,0,0,1.52,2.65c6.45-15.77,11.19-31.54,16.77-47,.68-1.89.51-4.8,3.39-4.94a74.91,74.91,0,0,1,11.41.34c1.26.14.85,2,.85,3.09,0,31.14,0,62.28.07,93.41,0,2.72-1.08,3.28-3.55,3.38-10.84.45-10.84.53-10.84-10.13,0-14,0-28,0-42C50.49,571.9,51.1,570,49.14,567.85Z"/><path class="cls-1" d="M343.43,582.59V570.38c0-13.49.11-27-.11-40.46-.06-3.78,1.11-4.82,4.83-4.76,9.63.15,9.63,0,9.63,9.81,0,28.31-.09,56.62.1,84.93,0,4.25-.84,5.86-5.44,5.65-8.11-.37-8.17-.06-11-7.85-5.27-14.38-10.46-28.78-15.75-43.15-.67-1.8-.9-3.9-3-5.34-1,1.94-.63,3.91-.63,5.79,0,15.32-.11,30.64.05,46,0,3.5-1,4.58-4.54,4.57-9.93,0-9.93.14-9.93-9.58,0-28.31.1-56.62-.09-84.93,0-4.45.91-6.15,5.72-5.91,8.07.41,8.09.09,10.74,7.48q8.08,22.54,16.21,45.1C340.76,579.19,341,581,343.43,582.59Z"/><path class="cls-1" d="M254.94,575.56c0-15.31.09-30.62-.06-45.93,0-3.23.87-4.35,4.2-4.31q17.48.2,35-.14c3.38-.07,4.27,1.15,4.17,4.35-.33,11.06,1.44,9-9.22,9.2-5.16.09-10.32.12-15.48,0-2.69-.07-3.88.61-3.8,3.6q.29,11,0,22c-.09,3.17,1.12,4,4.08,3.9,5.65-.18,11.32.07,17-.09,2.75-.08,3.75.77,3.87,3.65.42,10,.54,10-9.43,10-4,0-8,.1-12,0-2.6-.09-3.53.92-3.49,3.49.11,7.32.16,14.65,0,22-.07,3.06,1,4.08,4,4,6.65-.18,13.32.05,20-.11,3-.07,4.46.55,4.5,4.07.09,10.34.25,10.3-10.13,10.34-9.49,0-19,0-28.46.31-3.73.12-4.84-1-4.79-4.77C255.05,605.85,254.93,590.7,254.94,575.56Z"/><path class="cls-1" d="M480.28,0C587-1.61,687.48,89.47,680.44,212.75A200.13,200.13,0,0,1,479.77,401.19c-112.12.1-204.39-91.67-200.65-208.2C282.46,88.48,369.47-.85,480.28,0ZM653,200.52c0-96.07-77.08-172.65-172.73-173C385,27.11,303.9,106,307.08,206.48c2.83,89.64,77,166.64,172.69,166.87C575.44,373.31,653,296.59,653,200.52Z"/><path class="cls-1" d="M479.31,532.14c29.83,0,59.65.1,89.47-.1,4.28,0,5.15,1.23,5.13,5.28-.17,29.65-.3,59.3,0,88.94.12,9.82-4.08,16.49-11.94,21.48-9.5,6-20.22,8.32-31.11,10.16-18.33,3.11-35.55,8.88-49.57,21.8-1.71,1.58-2.67,1.08-4.11-.25-13.51-12.4-30-18.12-47.69-21.24-8.38-1.47-16.72-3-24.62-6.3-5.75-2.39-11-5.47-15.15-10.29a18.92,18.92,0,0,1-4.88-12.74q.11-46.21,0-92.43c0-3.59,1.1-4.4,4.51-4.39C419.33,532.19,449.32,532.14,479.31,532.14Z"/><path class="cls-3" d="M454,518.1c-3.7-11.82-4.81-23.72-1-35.75,6.07-19.28,27.58-33.78,48-31.39-6.62,2.83-10.87,8-17.85,8.2,3,1.69,5.94,3.33,8.87,5.07,1.27.75,2.15.38,3-.61,1.08-1.21.05-1.78-.73-2.29-1.63-1.06-1.32-2.05-.06-3.1,2.78-2.31,5.41-6.43,8.82-5.7,3.05.65,3.11,5.47,3.78,8.62,5.93,27.86-9.34,50.33-39.19,57.82l-4.82,1.23c-7,1.09-7.5.61-5.93-5.88A96.26,96.26,0,0,1,465.1,493c1.26-2.46,2.8-4.61,7.1-3.89a16,16,0,0,0-8.86-4.3c1.84,3.23.66,5.77-.23,8.41-2.37,7.06-5.09,14-6.37,21.41C456.49,516.08,456.42,518.15,454,518.1Z"/><path class="cls-4" d="M395,496.59c1.68,7.24,5.36,10.6,13.09,9-6.29,3.91-9.23,8.45-4.93,15.77-5.51-5.77-10.56-5.51-16.08,0,3.23-7,2.85-12.23-5.35-15.42C389.25,506.71,394.05,504.73,395,496.59Z"/><path class="cls-5" d="M424.34,521.27c3.76-7.07,1.81-11.79-5.07-15.48,7.23.85,11.75-1.14,12.76-9,1.77,7.05,5.53,10.3,13.06,8.82-5.65,3.85-9.36,7.87-4.78,15.07C434.72,516.8,429.62,515.15,424.34,521.27Z"/><path class="cls-6" d="M534.72,520.59c-8-3.85-8-3.85-16.68.62,3.69-6.78,3.22-12-4.48-15.39,7.65.89,12-1.71,12.84-9.78,1.62,7.13,4.71,11.31,12.89,9.5C533.06,509.45,530.36,513.94,534.72,520.59Z"/><path class="cls-7" d="M387.31,488c3-6.68,2.54-11.73-5.15-15.13,7.93,1.21,11.78-2.13,12.89-9.63,1.58,7.14,5,11,13.12,9.5-7.37,3.55-8.55,8.52-5.1,15.43C397.74,482.82,392.85,482.29,387.31,488Z"/><path class="cls-8" d="M550.79,505.71c7.59,1.16,11.65-1.63,13-9.21,1.49,7.39,5.23,10.64,13,9-6.4,3.8-9.14,8.3-4.8,15.48-5.58-5.16-10.65-5.48-16.1.16C559.25,514.27,558.11,509.26,550.79,505.71Z"/><path class="cls-5" d="M576.6,472.61c-6.9,3.53-8.35,8.15-4.84,15.06-5.44-5-10.42-5.2-15.79.12,3-6.8,2.31-11.82-5.17-15.11,7.45.86,11.77-1.64,12.76-9.45C565.34,470.1,568.54,474.4,576.6,472.61Z"/><path class="cls-9" d="M432.26,463.54c1.63,6.88,4.71,10.87,12.52,8.35-1.48,3.73-5.26,4.18-6.36,6.77-1.23,2.87,1.81,5.51,1.29,9.55-4.9-4.74-9.74-6.26-15.07-.28,2.63-6.79,2.18-11.92-5.43-15.06C426.79,473.88,430.8,470.86,432.26,463.54Z"/><path class="cls-10" d="M518.83,487.73c3.08-6.84,2.23-11.77-5.4-15.05,8.23,1.39,11.71-2.41,13.11-9.62,1.64,6.68,4.4,11.29,12.65,9.31-5.36,4-9.77,7.88-4.32,15.2C529.22,483.27,524.24,481.81,518.83,487.73Z"/><path class="cls-11" d="M454,518.1a3.82,3.82,0,0,0,1.59-2.94,108.76,108.76,0,0,1,7.2-24.78c.57-1.43,1.95-3.07-.75-3.93-1.22-.39-1.44-1.25-.9-2.32a2,2,0,0,1,2.54-1,28.55,28.55,0,0,1,9.42,4.38,1.85,1.85,0,0,1,.55,2.63,1.48,1.48,0,0,1-2.47.5c-2.56-2.11-3.35-.1-4.33,1.73a111.2,111.2,0,0,0-8.75,21.64c-1.92,6.5-1.89,6.51,4.74,6.15C459.23,522.38,456.32,521.52,454,518.1Z"/><path class="cls-1" d="M135.14,575.46c0-15.14.12-30.28-.09-45.41-.05-3.8,1.13-4.93,4.82-4.74,6.81.35,13.66,0,20.45.48,12,.88,20.05,8.31,20.81,20.25a461.65,461.65,0,0,1,0,58.34c-.8,12.5-9.35,20.25-21.93,21-6.63.41-13.31.06-20,.36-3.45.16-4.16-1.25-4.13-4.37C135.21,606.07,135.14,590.77,135.14,575.46Zm32,.06c0-7.81.11-15.62,0-23.42-.18-10.59-4-13.83-14.59-13.23-2.37.14-3.12.86-3.11,3.2.07,22.26,0,44.52.05,66.77,0,1.5-.07,2.85,2,3.34,9,2.08,15.28-2.49,15.53-11.75.22-8.3,0-16.61,0-24.91Z"/><path class="cls-1" d="M195.12,575.42c0-15,.16-29.94-.11-44.91-.07-4.27,1.3-5.43,5.36-5.2,6.63.39,13.32,0,19.94.47,11.9.84,20.07,8.42,20.73,20.32a502.43,502.43,0,0,1-.06,58.34c-.77,12.45-9.36,20.23-21.92,20.95-6.3.37-12.65,0-19,.38-3.86.22-5.14-.89-5.08-4.94C195.26,605.69,195.12,590.56,195.12,575.42Zm14.25,32.82c0,3.06,1,4,4,4,10.19.07,13.57-2.94,13.65-13.29q.19-23.48,0-47c-.07-10.3-3.37-13.19-13.72-13.11-3,0-4,.81-4,3.93.18,10.82.07,21.65.07,32.47C209.42,586.25,209.51,597.25,209.37,608.24Z"/><path class="cls-1" d="M119.48,625.68c-5,1.59-6.86-1.34-7.37-6.56-.37-3.79-1.61-7.49-2.08-11.27-.37-3-1.82-3.82-4.63-3.68a93.55,93.55,0,0,1-11.48,0c-3.43-.25-4.71,1.21-5.18,4.41-.65,4.43-1.95,8.78-2.45,13.23-.38,3.35-2,3.92-5,4-10.25.08-10.38.14-8.18-9.79,6.45-29,13.07-58,19.44-87.07.68-3.08,2.1-3.63,4.77-3.53,9.45.36,7.65-1.65,9.8,7.81,6.63,29.17,13.13,58.36,19.71,87.54C128,625.71,128.07,625.69,119.48,625.68ZM98.76,557c-1.53,7.93-3.09,15.86-4.57,23.79-1.92,10.32-1.89,10.25,8.65,9.84,2.54-.1,3.7-.64,3.14-3.4-2-10-4-20.09-6-30.14Z"/><path class="cls-1" d="M394.73,193.22h13.93c17.49,0,35-.06,52.49.06a6.1,6.1,0,0,0,6-3.31q28.92-46,58.12-91.89c1.21-1.91,1.94-4.27,4.56-5.65q11.18,17.71,22.32,35.4,27.07,42.81,54.12,85.64c.79,1.26,2.89,2.51,1.73,4.21-.83,1.23-2.81.51-4.27.52-6.83.06-13.67-.12-20.49.1-3.07.09-4.81-1-6.35-3.6-3.63-6.17-7.71-12.06-11.39-18.2a6,6,0,0,0-6-3.33c-13.17.15-26.33,0-39.5.12-3.3,0-3.81-.78-2-3.54,4.14-6.43,8.23-12.89,12.17-19.45,1.26-2.1,3-2.25,5-2.34,3.75-.18,7.57.7,11.75-.66-5.39-8.59-10.63-16.84-15.77-25.16-2-3.15-2.89-1.21-4,.6-14.44,22.95-29,45.81-43.24,68.9-2.92,4.75-5.91,6.79-11.74,6.74-39.32-.3-78.65-.14-118-.18-1.41,0-3.34.81-4.14-.64s1-2.62,1.71-3.82q12.88-20.51,25.82-41c.78-1.24,1.85-2.35,1.94-4.7-5.93,0-11.82-.1-17.7,0-3.11.07-4.56-.28-2.32-3.66,4.05-6.1,7.92-12.32,11.72-18.57a5.47,5.47,0,0,1,5.3-2.85q44.75.09,89.49,0c3.77,0,3.9,1,2,3.84q-6.09,9.12-11.76,18.53c-1.31,2.16-2.92,2.75-5.32,2.73-12-.1-24,.06-36-.11a6.41,6.41,0,0,0-6.36,3.57C404.26,178.62,399.69,185.48,394.73,193.22Z"/><path class="cls-1" d="M389.44,117.11c4.93-7.84,9.62-15.22,14.21-22.66,1.07-1.73,2.56-1.83,4.28-1.83q47.91,0,95.81,0c3.11,0,4.05.67,2.15,3.58q-6.11,9.41-12,18.94a4.63,4.63,0,0,1-4.44,2.49q-49.14,0-98.3,0A9.29,9.29,0,0,1,389.44,117.11Z"/><path class="cls-1" d="M593,285c-1.83,0-3.66,0-5.49,0-8.85-.07-12.89-4.43-12.51-13.41.08-1.67-.21-3.72,2.35-3.33,2.16.33,5.13-1.7,6.34,2,.69,2.13.61,5.16,3.26,5.76,4.05.92,8.6,1.37,12.32-.07,4.13-1.61,2.53-6.31,2.5-9.79,0-2.95-1.74-4.4-4.9-4.22-3.32.19-6.67.14-10,0-7.07-.26-11.41-5.11-11.93-12.05-1.3-17.61,5.9-20,19.3-19.23,2.15.13,4.35-.13,6.48.17,6.54.93,10.38,5.43,10.66,12.38.06,1.69.64,4.22-2.22,4-2.34-.15-5.51,1.75-6.84-2.07-.74-2.13-.91-4.93-3.9-5.17-4.12-.32-8.74-1.57-12.23.63-3.32,2.07-1.45,6.47-1.3,9.8.1,2.37,2.51,2.17,4.36,2.17,3.16,0,6.33-.09,9.49,0,7.61.3,12.64,5.41,12.9,13,.06,1.67,0,3.33,0,5,0,9.94-4.32,14.27-14.16,14.32Z"/><path class="cls-1" d="M365.63,285c-2,0-4,0-6,0-8.6-.13-13.3-5.78-12.11-14.4.21-1.55.65-2.74,2.35-2.35,2.16.49,5.19-1.75,6.4,1.92.71,2.15.57,5.18,3.16,5.83,4,1,8.59,1.37,12.31,0,4.15-1.55,2.69-6.19,2.54-9.73-.13-3-1.6-4.48-4.81-4.29s-6.66.12-10,0c-6.93-.25-11.64-4.63-11.78-11.55-.11-5.49-1.63-11.41,3.22-16a10.29,10.29,0,0,1,5.53-3.13,53,53,0,0,1,18.33,0c6.09,1.18,9.08,5.82,8.89,12.56-.05,1.64.26,3.76-2.29,3.44-2.19-.27-5.16,1.64-6.43-1.9-.76-2.11-.84-4.92-3.73-5.3-4.11-.54-8.61-1.44-12.28.46s-1.53,6-1.61,9.18c-.07,2.69,2.15,2.92,4.3,2.91,3.33,0,6.66-.14,10,0,7.34.39,11.95,5.08,12.36,12.4.08,1.33,0,2.66,0,4,0,12.53-3.4,16-15.89,16h-2.5Z"/><path class="cls-1" d="M544.09,262.38c0-6.14-.15-12.3.06-18.44.1-3-.61-4.4-3.82-4a33.46,33.46,0,0,1-4.48,0c-5.9,0-6-.22-5.66-6.22.12-2.45,1.07-3.09,3.33-3.07,10.47.07,20.94.12,31.41,0,3.65,0,3,2.31,2.87,4.32s1.44,5.11-2.7,5a4.21,4.21,0,0,0-.5,0c-3.36.42-8-1.66-9.82,1.11-1.63,2.44-.61,6.71-.62,10.18,0,10-.2,19.94.07,29.9.1,3.73-1.62,4.14-4.48,3.85-2.53-.26-5.92,1.23-5.71-3.71.28-6.3.07-12.62.07-18.94Z"/><path class="cls-12" d="M440.16,590.48c-1.74,5.09-3.51,10.18-5.2,15.29-2.14,6.48-4.17,13-6.35,19.46-.63,1.88-.56,4.56-3.87,4.18-3-.34-4.73-1.67-5.54-4.75-2.91-11.1-6-22.16-9.07-33.23-.48-1.75-.71-3.58-2.15-5.2-1.53,1.66-.9,3.57-.91,5.24-.07,15.49-.16,31,0,46.46,0,4.18-1.11,4.39-4.91,3.55-5.85-1.29-7.42-4.16-7.35-10,.32-28,.11-56,.2-83.92,0-2-1.42-5.51,2.37-5.35,3.64.16,8.55-2.49,10.36,3.71,4.45,15.17,9.1,30.29,13.7,45.42.47,1.56.59,3.3,2,4.6,2.19-.65,2.05-2.82,2.57-4.36,4.82-14.36,9.64-28.73,14.17-43.18,1.22-3.89,2.77-5.73,7.25-5.49,11.35.62,9.92-1.52,10,10.32q.29,49.71.37,99.41c0,6.36-.05,6.48-5.85,4.59-11.89-3.87-9.85-1.3-10-13.34-.17-15.82-.12-31.64-.19-47.46,0-1.9-.19-3.8-.29-5.71Z"/><path class="cls-13" d="M486.32,541.73c6.82,0,13.65.14,20.47-.06,3.31-.1,4.39,1.08,4.26,4.31-.21,5.15,0,10.32-.12,15.47,0,1.77,1,4.7-2.16,4.55s-7.2,2.15-9.34-2.27a18,18,0,0,1-1.41-4.25c-.53-2.62-2-3.43-4.62-3.4-10.87.13-8.62-.71-8.83,8.66-.11,4.65-.16,9.32,0,14,.08,1.9-1.4,5,1.77,5.37,2.9.33,6.4,1.55,8.77-1.7.49-.67.92-1.39,1.47-2,2-2.28,4.66-1.63,7-1.15s1.28,2.76,1.32,4.27c.11,5.32.13,10.65,0,16,0,1.65,1,4.16-1.57,4.61-2.32.41-5,1-7-1.37-1.33-1.65-2.34-3.41-5-3.56-6.45-.36-6.82-.2-6.83,6.19,0,12.32,0,24.63,0,36.95,0,2.2-.05,4.4,1.88,5.92,4.54,3.57,3.53,8.56,3.55,13.32,0,2.58-1.33,2.61-3.25,1.89-7.47-2.83-14.93-5.69-22.46-8.37-2.54-.91-2.7-2.76-2.41-4.77.36-2.55-1.62-6.09,2.3-7.29,3.49-1.07,3.86-3.4,3.85-6.48q-.11-37.69,0-75.38c0-2.22,0-4.16-2.43-5.48-3.18-1.74-5.11-9.19-3.6-12.51.85-1.86,2.51-1.33,3.89-1.34,6.83-.06,13.65,0,20.48,0Z"/><path class="cls-14" d="M565.5,622c0,3.82-.08,7.65,0,11.48.07,2.49-.63,3.93-3.32,4.62q-21.27,5.48-42.45,11.29c-3,.81-4.15.57-4.2-2.93-.07-5-.14-9.64,5-12.51,2-1.11,2.18-3.12,2.18-5.22q0-34,0-67.91c0-1.87-.09-3.47-2-4.7-3.35-2.13-5.31-9.57-3.78-13,.74-1.64,2.15-1.3,3.4-1.3,7,0,14,.08,21-.07,2.9-.06,3.84,1.12,3.67,3.85-.27,4.12,1.33,8.82-4.29,11-1.58.6-1.19,2.59-1.19,4.06,0,21,0,41.94-.06,62.92,0,3.08.69,4.11,4,3.31,8-1.93,8-1.78,9.13-10.19.15-1.15.29-2.31.42-3.47.74-7,3.6-8.82,10.45-7.13,2.09.52,2,1.92,2,3.39,0,4.16,0,8.32,0,12.49Z"/><path class="cls-15" d="M467.24,475.38a27.53,27.53,0,0,1,10.83,5.19,1.68,1.68,0,0,1,.18,2.59c-.68.92-1.5,1.29-2.52.6a32.63,32.63,0,0,0-9.36-4.41c-1-.29-1.92-.75-1.44-2.05S466.09,475.33,467.24,475.38Z"/><path class="cls-16" d="M484,474.83c-.73,1.75-1.53,3.26-3.63,1.81a32.48,32.48,0,0,0-9.34-4.49c-2.1-.63-1.6-2-.31-2.82,2.52-1.65,4.77.14,6.93,1.11C480,471.49,482.61,472.36,484,474.83Z"/><path class="cls-17" d="M489.71,468.33c-.75,1.74-1.7,3.11-3.67,1.77a34.56,34.56,0,0,0-8.83-4.35c-1.62-.52-1.68-1.38-.44-2.41,1.91-1.58,3.79-.53,5.56.25C485,464.76,487.81,465.83,489.71,468.33Z"/><path class="cls-1" d="M488.68,257.77c0-7.81.11-15.63-.06-23.44-.06-2.87.92-3.76,3.73-3.69,6.48.17,13,.11,19.45.07s13.34,4.67,12.45,12.92a69.43,69.43,0,0,0,0,9.46c.07,2.51-.66,5.14-2.53,6.23-5.49,3.21-3.22,7-1.48,10.9s3.26,8,5.17,11.85c1.17,2.38.42,2.84-1.83,3-4.26.24-8.07.56-9.36-5.2-.88-4-3.14-7.65-4.76-11.47s-5-5.33-9-4.18c-2.17.6-1.65,2.21-1.66,3.58-.06,4.66-.19,9.32,0,14,.19,4.3-2.82,3.24-5.09,3.26s-5.15,1-5-3.28C488.83,273.73,488.68,265.75,488.68,257.77Zm15.48-2.23c10.34-.6,10.63-.32,10.63-7.85s-.1-7.67-7.44-7.68c-8.65,0-8.65,0-8.67,7.51C499,251.17,496.74,256,504.16,255.54Z"/><path class="cls-1" d="M477.12,258.25c0,5,0,10,0,15-.07,7.32-4.42,11.65-11.83,11.77-4,.07-8,.06-12,0-7.43-.11-12-4.06-12.28-11.47-.35-10.3-.28-20.62,0-30.93.15-5.89,3.82-10.3,9.41-11.32a44.28,44.28,0,0,1,17.8.1c6.17,1.4,8.87,5.11,8.92,11.42C477.16,247.94,477.12,253.1,477.12,258.25Zm-9.32-7.19c.32-11.93.1-11.11-12.27-11.06-3.21,0-4.75,1.49-4.66,5,.19,7.15.05,14.31.05,21.46,0,10.08.19,10.27,10.26,10,.5,0,1,0,1.49,0,3.24-.34,5.24-1.77,5.14-5.4-.11-4.32,0-8.65,0-13C467.79,255.72,467.73,253.39,467.8,251.06Z"/><path class="cls-1" d="M395,258.05c0-7.81.13-15.62-.06-23.43-.07-3,.85-4.09,3.94-4,6.48.21,13,0,19.45.11,8.42.18,12.88,4.77,12.93,13.07,0,3.32.06,6.65,0,10-.16,6.64-4.74,11.22-11.32,11.33-3.82.07-7.65.18-11.46,0-2.91-.15-3.77,1-3.65,3.76.18,4-.21,8,.12,12,.31,3.81-1.44,4.5-4.67,4.29-2.81-.19-5.58.54-5.36-4.11C395.26,273.36,395,265.7,395,258.05Zm17.91-1.42c7.94,0,8.94-.91,8.94-8.11,0-8.54,0-8.57-11.32-8.56-5.69,0-5.69,0-5.68,8C404.85,256.64,404.85,256.64,412.9,256.63Z"/></svg>