<?xml version="1.0" encoding="utf-8"?>
<!-- Generator: Adobe Illustrator 25.0.0, SVG Export Plug-In . SVG Version: 6.00 Build 0)  -->
<svg version="1.1" id="Livello_1" xmlns="http://www.w3.org/2000/svg" xmlns:xlink="http://www.w3.org/1999/xlink" x="0px" y="0px"
	 viewBox="0 0 1159.96 418.67" style="enable-background:new 0 0 1159.96 418.67;" xml:space="preserve">
<style type="text/css">
	.st0{fill:#FFFFFF;}
</style>
<g>
	<path class="st0" d="M609.01,187.73c8.76-37.88,17.21-74.38,25.72-111.18c21.9,0,43.79,0,66.03,0
		c13.78,74.27,27.55,148.44,41.54,223.79c9.15-11.59,17.62-22.32,26.33-33.36c8.92,11.22,19.95,18.49,33.6,21.49
		c12.62,2.77,25.04,2.94,36.96-3.07c6.21-3.13,10.63-7.76,10.91-14.91c0.28-7.06-3.86-12.23-9.86-15c-9.31-4.3-18.9-8.07-28.6-11.41
		c-15.54-5.35-31.25-10.18-45.32-19.02c-22.8-14.33-33.8-35.15-35.08-61.82c-2.12-44.14,25.93-70.19,53.68-81.1
		c50.07-19.7,94.88-7.89,137.02,23.66c-13.76,17.48-27.08,34.41-40.43,51.38c-6.1-4.52-11.69-9.24-17.82-13.09
		c-13.18-8.28-27.48-10.81-42.44-5.79c-6.41,2.15-12.12,5.85-13.12,13.55c-0.97,7.48,2.95,12.81,9.05,15.81
		c8.3,4.08,17.1,7.13,25.74,10.5c14.96,5.84,30.67,10.22,44.8,17.64c30.93,16.23,40.66,44.11,38.9,75.93
		c-1.14,20.55-7.74,38.98-21.8,54.38c-14.46,15.84-32.81,24.72-53.51,28.71c-33.6,6.49-66.13,2.78-97.29-11.69
		c-1.03-0.48-2.13-0.82-3.84-1.46c0.99,4.78,1.87,9.05,2.86,13.83c-1.95,0.09-3.55,0.23-5.15,0.23
		c-22.98,0.01-45.96-0.07-68.94,0.09c-3.93,0.03-5.25-0.95-5.74-5.13c-3.43-29.03-7.24-58.01-10.96-87
		c-0.12-0.93-0.52-1.81-1.56-2.71c-2.45,12.88-4.9,25.77-7.34,38.65c-3.33,17.6-6.59,35.22-10.1,52.79
		c-0.26,1.3-2.37,3.17-3.64,3.18c-22.13,0.19-44.27,0.14-67.13,0.14c-5.74-31.88-11.45-63.64-17.17-95.39
		c-0.23-0.02-0.46-0.04-0.69-0.06c-1.74,11.09-3.51,22.17-5.22,33.27c-3.03,19.69-5.98,39.4-9.17,59.06
		c-0.19,1.19-2.18,2.98-3.34,2.99c-23.96,0.18-47.91,0.13-73.01,0.13c17.35-103.35,34.61-206.16,51.93-309.36
		c1.52-0.13,2.96-0.37,4.4-0.37c18.49-0.02,36.97,0.1,55.45-0.11c3.84-0.04,5.04,1.31,5.75,4.89
		c8.62,43.98,17.41,87.93,26.16,131.88C607.82,183.92,608.27,185.16,609.01,187.73z"/>
	<path class="st0" d="M1120.23,418.67c-28.08,0-55.32,0-83.06,0c0-20.91,0-41.63,0-62.95c-49.95,0-99.41,0-148.87,0
		c29.28-18.09,46.52-43.4,50.02-77.59c3.48-33.86-4.86-63.27-32.86-85.63c7.63-9.71,15.2-19.35,22.78-28.97
		c36.99-46.9,73.96-93.81,111.05-140.62c1.35-1.7,3.9-3.45,5.9-3.46c24.14-0.23,48.29-0.15,72.43-0.13c0.63,0,1.26,0.15,2.35,0.28
		c0,83.45,0,166.76,0,250.63c13.52,0,26.58,0,39.98,0c0,28.61,0,56.66,0,85.25c-13.12,0-26.19,0-39.73,0
		C1120.23,376.74,1120.23,397.47,1120.23,418.67z M1036.7,269.98c0-38.45,0-76.38,0-115.3c-27.65,38.78-54.7,76.71-82.21,115.3
		C982.48,269.98,1009.49,269.98,1036.7,269.98z"/>
	<path class="st0" d="M374.17,52.54c-13.85,17.56-27.43,34.77-41.24,52.28c-3.54-2.72-6.77-5.29-10.1-7.73
		c-19.12-13.98-40.18-19.71-63.47-13.7c-5.6,1.44-11.1,4.6-15.74,8.16c-11.98,9.19-12.87,25.87-2.58,36.97
		c6.77,7.29,15.54,11.37,24.66,14.55c17.85,6.22,35.98,11.69,53.75,18.13c17.23,6.24,32.91,15.25,44.94,29.52
		c11.67,13.84,17.22,30.25,18.72,47.97c1.9,22.54-0.52,44.49-11.42,64.85c-14.33,26.75-37.43,42.5-65.94,50.17
		c-54.47,14.65-104.97,5.23-151.09-27.31c-4.89-3.45-9.71-7.01-14.5-10.6c-3.05-2.29-5.99-4.74-9.47-7.51
		c13.56-19.55,27.05-39,40.43-58.3c9.02,7.08,17.46,14.33,26.52,20.68c16.25,11.37,34.34,18.13,54.3,18.94
		c12.12,0.49,23.86-1.63,34.61-7.62c19.83-11.05,21.55-34.38,2.8-47.1c-8.11-5.5-17.62-9.19-26.88-12.71
		c-17.81-6.78-36.21-12.09-53.79-19.41c-22.67-9.44-41.3-24.23-49.72-48.25c-15.59-44.47-4.24-92.34,42.09-119.26
		c25.16-14.61,52.39-20.26,81.38-18.09c32.32,2.42,61.44,13.35,87.68,32.23C371.45,50.34,372.69,51.39,374.17,52.54z"/>
	<path class="st0" d="M59.11,365.15c-6.08-18.59-12.03-36.68-17.92-54.79c-13.64-41.93-27.28-83.85-40.76-125.82
		c-0.65-2.03-0.63-5.09,0.47-6.75c34.41-52.17,69-104.22,103.57-156.28c0.54-0.81,1.2-1.53,2.31-2.94
		c2.37,7.1,4.59,13.62,6.72,20.16c17.41,53.6,34.82,107.19,52.09,160.84c0.61,1.91,0.57,4.79-0.46,6.36
		C130.42,258.48,95.55,310.93,60.7,363.4C60.44,363.8,60.05,364.12,59.11,365.15z M51.57,192.58c20.89,2.85,41.01,5.6,61.48,8.4
		c-14.74,44.35-29.2,87.87-43.66,131.4c1.83-1.31,2.61-3.04,3.34-4.79c16.15-38.76,32.29-77.51,48.45-116.27
		c3.56-8.53,3.57-8.53,12.67-8.53c8.26,0,16.53,0,24.79,0c-9.3-3.69-18.69-6.33-28.12-8.79c-3.03-0.79-4.65-1.88-4.95-5.54
		c-0.75-9.26-2.24-18.46-3.38-27.69c-2.83-22.91-5.63-45.83-8.46-68.74c-1.75-14.13-3.54-28.25-5.31-42.38
		c-0.34,0.02-0.67,0.05-1.01,0.07c2.31,46.98,4.62,93.95,6.95,141.43c-20.76-2.85-40.86-5.61-61.47-8.44
		C67.76,138.03,82.38,94.04,97,50.06c-1.79,1.52-2.64,3.4-3.43,5.31C76.7,95.79,59.79,136.2,43.05,176.68
		c-1.34,3.23-2.8,4.58-6.45,4.48c-9.82-0.28-19.65-0.1-29.48-0.1c9.16,3.45,18.33,6.26,27.66,8.4c4.27,0.98,5.51,3.26,5.86,7.13
		c0.65,7.11,1.54,14.2,2.42,21.29c2.87,23.24,5.77,46.48,8.67,69.72c2.11,16.93,4.22,33.87,6.33,50.8c0.24-0.02,0.48-0.03,0.71-0.05
		C56.38,289.97,53.99,241.61,51.57,192.58z"/>
	<path class="st0" d="M381.97,76.48c26.32,0,52.4,0,79.03,0c0.09,1.92,0.24,3.69,0.24,5.45c0.01,89.37-0.03,178.75,0.12,268.12
		c0.01,4.72-1.41,5.79-5.89,5.75c-22.81-0.21-45.62-0.1-68.43-0.1c-1.63,0-3.27,0-5.49,0c0-10.06,0.24-19.66-0.07-29.24
		c-0.3-9.24,1.59-17.6,5.02-26.39c13.65-35.02,13.68-69.97-3.74-104.09c-0.65-1.27-1.16-2.79-1.16-4.2
		c-0.05-37.95-0.02-75.89,0.01-113.84C381.6,77.64,381.75,77.32,381.97,76.48z"/>
	<path class="st0" d="M428.5,64.31c-4.8,0-9.04,0-13.6,0c0-21.41,0-42.58,0-64.31c2.04,0,3.82,0,5.61,0c2.12,0,4.24,0,6.82,0
		c0,6.92,0,13.32,0,19.81c3.77-1.47,6.99-3.23,10.43-3.96c8.52-1.8,16.17,3.98,16.5,12.89c0.44,11.59,0.11,23.21,0.11,35.16
		c-4.68,0-9.06,0-14.18,0c0-6.42,0.01-12.83,0-19.24c-0.01-3.66,0.43-7.4-0.24-10.94c-0.38-2-2.74-5.24-3.93-5.12
		c-2.32,0.23-4.96,2.02-6.48,3.95c-1.14,1.45-0.98,4.1-1,6.23C428.44,47.21,428.5,55.64,428.5,64.31z"/>
	<path class="st0" d="M503.35,57.06c-10.5,7.2-20.95,10.78-32.73,5.46c-10.23-4.62-15.15-15.31-13.04-27.55
		c1.76-10.22,10.26-17.82,21.07-18.83c11.76-1.1,19.97,3.1,26.02,13.68c-9.63,6.26-19.31,12.55-29.46,19.15
		c7.66,4.96,13.67,1.25,20.32-2.57C497.95,49.71,500.44,53.1,503.35,57.06z M486.67,29.63c-7.79-3.52-14.21,0.8-14.71,9.56
		C476.87,35.99,481.64,32.9,486.67,29.63z"/>
	<path class="st0" d="M411.59,1.32c0,4.99,0,9.42,0,14.41c-4.53,0-8.92,0-13.93,0c0,16.38,0,32.23,0,48.44c-5.51,0-10.4,0-15.92,0
		c0-15.81,0-31.67,0-48.06c-5.64,0-10.7,0-16.33,0c1.34-4.76,2.4-8.89,3.73-12.94c0.26-0.8,1.6-1.77,2.45-1.77
		C384.85,1.29,398.11,1.32,411.59,1.32z"/>
	<path class="st0" d="M934.15,82.32c-1.06,1.33-2.02,2.53-3.22,4.03c-1.13-1.46-2.08-2.69-3.58-4.62c-0.11,2.42,0,4.15-0.34,5.79
		c-0.18,0.87-1.15,1.57-1.77,2.34c-0.61-0.82-1.69-1.61-1.73-2.46c-0.19-3.79-0.08-7.6-0.08-11.45c4.57-2.31,5.27,1.82,7.11,3.9
		c2.12-1.76,4.24-3.52,7.33-6.08c0,6.45,0,11.18,0,15.9c-0.57,0.16-1.13,0.32-1.7,0.48C935.53,87.67,934.89,85.19,934.15,82.32z"/>
	<path class="st0" d="M913.3,90.94c0-4.87,0-8.46,0-11.69c-1.84-1.05-3.21-1.83-4.58-2.61c0.16-0.37,0.32-0.75,0.48-1.12
		c3.89,0,7.79,0,11.68,0c0.16,0.35,0.33,0.7,0.49,1.05c-1.36,0.83-2.72,1.66-4.01,2.44C915.47,82.33,919.36,87.56,913.3,90.94z"/>
</g>
</svg>
